<svg width="32" height="32" viewBox="0 0 32 32" fill="none" xmlns="http://www.w3.org/2000/svg">
<path d="M23.3714 10.36C23.2781 10.3466 23.1848 10.3466 23.0914 10.36C21.0248 10.2933 19.3848 8.59996 19.3848 6.51996C19.3848 4.39996 21.1048 2.66663 23.2381 2.66663C25.3581 2.66663 27.0914 4.38663 27.0914 6.51996C27.0781 8.59996 25.4381 10.2933 23.3714 10.36Z" fill="#626E8E"/>
<path d="M27.7195 19.5999C26.2261 20.5999 24.1328 20.9733 22.1995 20.7199C22.7061 19.6266 22.9728 18.4133 22.9861 17.1333C22.9861 15.7999 22.6928 14.5332 22.1328 13.4266C24.1061 13.1599 26.1995 13.5333 27.7061 14.5333C29.8128 15.9199 29.8128 18.1999 27.7195 19.5999Z" fill="#626E8E"/>
<path d="M8.58719 10.36C8.68052 10.3466 8.77385 10.3466 8.86719 10.36C10.9339 10.2933 12.5739 8.59996 12.5739 6.51996C12.5739 4.39996 10.8539 2.66663 8.72052 2.66663C6.60052 2.66663 4.86719 4.38663 4.86719 6.51996C4.88052 8.59996 6.52052 10.2933 8.58719 10.36Z" fill="#626E8E"/>
<path d="M8.73154 17.1335C8.73154 18.4268 9.01154 19.6535 9.5182 20.7602C7.6382 20.9602 5.6782 20.5602 4.2382 19.6135C2.13154 18.2135 2.13154 15.9335 4.2382 14.5335C5.66487 13.5735 7.6782 13.1868 9.57154 13.4002C9.02487 14.5202 8.73154 15.7868 8.73154 17.1335Z" fill="#626E8E"/>
<path d="M16.1604 21.16C16.0538 21.1467 15.9337 21.1467 15.8137 21.16C13.3604 21.08 11.4004 19.0667 11.4004 16.5867C11.4004 14.0533 13.4404 12 15.9871 12C18.5204 12 20.5738 14.0533 20.5738 16.5867C20.5738 19.0667 18.6271 21.08 16.1604 21.16Z" fill="white"/>
<path d="M11.8284 23.9199C9.81503 25.2666 9.81503 27.4799 11.8284 28.8132C14.1217 30.3466 17.8817 30.3466 20.1751 28.8132C22.1884 27.4666 22.1884 25.2532 20.1751 23.9199C17.8951 22.3866 14.1351 22.3866 11.8284 23.9199Z" fill="white"/>
</svg>
