<svg width="32" height="32" viewBox="0 0 32 32" fill="none" xmlns="http://www.w3.org/2000/svg">
<path fill-rule="evenodd" clip-rule="evenodd" d="M5.33398 12C5.88626 12 6.33398 12.4477 6.33398 13V14.3333C6.33398 19.6721 10.6619 24 16.0007 24C21.3394 24 25.6673 19.6721 25.6673 14.3333V13C25.6673 12.4477 26.115 12 26.6673 12C27.2196 12 27.6673 12.4477 27.6673 13V14.3333C27.6673 20.4397 22.9758 25.4505 17.0007 25.9577V29C17.0007 29.5523 16.5529 30 16.0007 30C15.4484 30 15.0007 29.5523 15.0007 29V25.9577C9.02545 25.4505 4.33398 20.4397 4.33398 14.3333V13C4.33398 12.4477 4.7817 12 5.33398 12Z" fill="#31384C"/>
<path d="M13.0007 10.3334C13.0007 9.78113 12.5529 9.33341 12.0007 9.33341H10.4219H8.39861C8.88862 5.57172 12.1054 2.66675 16.0007 2.66675C19.8959 2.66675 23.1126 5.57172 23.6026 9.33341H21.5793H18.0007C17.4484 9.33341 17.0007 9.78113 17.0007 10.3334C17.0007 10.8857 17.4484 11.3334 18.0007 11.3334H21.6673H23.6673V13.3334H21.6673H18.0007C17.4484 13.3334 17.0007 13.7811 17.0007 14.3334C17.0007 14.8857 17.4484 15.3334 18.0007 15.3334H21.5793H23.6026C23.1126 19.0951 19.8959 22.0001 16.0007 22.0001C12.1054 22.0001 8.88862 19.0951 8.39861 15.3334H10.4219H12.0007C12.5529 15.3334 13.0007 14.8857 13.0007 14.3334C13.0007 13.7811 12.5529 13.3334 12.0007 13.3334H10.334H8.33398V11.3334H10.334H12.0007C12.5529 11.3334 13.0007 10.8857 13.0007 10.3334Z" fill="white"/>
<path d="M17 14.3333C17 14.8855 17.4477 15.3333 18 15.3333H21.5787H23.602L23.6667 13.3333H21.6667H18C17.4477 13.3333 17 13.781 17 14.3333Z" fill="#31384C"/>
<path d="M17 10.3333C17 10.8855 17.4477 11.3333 18 11.3333H21.6667H23.6667L23.602 9.33325H21.5787H18C17.4477 9.33325 17 9.78097 17 10.3333Z" fill="#31384C"/>
<path d="M13.0007 10.3333C13.0007 9.78097 12.5529 9.33325 12.0007 9.33325H10.4219H8.39861L8.33398 11.3333H10.334H12.0007C12.5529 11.3333 13.0007 10.8855 13.0007 10.3333Z" fill="#31384C"/>
<path d="M13.0007 14.3333C13.0007 13.781 12.5529 13.3333 12.0007 13.3333H10.334H8.33398L8.39861 15.3333H10.4219H12.0007C12.5529 15.3333 13.0007 14.8855 13.0007 14.3333Z" fill="#31384C"/>
</svg>
