<svg width="32" height="32" viewBox="0 0 32 32" fill="none" xmlns="http://www.w3.org/2000/svg">
<path d="M15.7492 8.96897C17.1003 6.54524 17.7759 5.33337 18.7859 5.33337C19.7959 5.33337 20.4713 6.54524 21.8224 8.96897L22.172 9.59603C22.5559 10.2848 22.7479 10.6291 23.0472 10.8564C23.3465 11.0836 23.7193 11.1679 24.4649 11.3366L25.1436 11.4902C27.7673 12.0838 29.0792 12.3806 29.3912 13.3843C29.7033 14.3879 28.8091 15.4338 27.0204 17.5252L26.5576 18.0664C26.0493 18.6607 25.7952 18.9579 25.6809 19.3256C25.5665 19.6932 25.6049 20.0898 25.6819 20.8827L25.7517 21.6047C26.0223 24.3954 26.1575 25.7907 25.3403 26.411C24.5232 27.0312 23.2949 26.4656 20.8384 25.3346L20.2029 25.042C19.5048 24.7206 19.1559 24.5599 18.7859 24.5599C18.4159 24.5599 18.0668 24.7206 17.3688 25.042L16.7332 25.3346C14.2767 26.4656 13.0484 27.0312 12.2313 26.411C11.4142 25.7907 11.5494 24.3954 11.8198 21.6047L11.8898 20.8827C11.9666 20.0898 12.0051 19.6932 11.8907 19.3256C11.7764 18.9579 11.5223 18.6607 11.014 18.0664L10.5513 17.5252C8.76261 15.4338 7.86829 14.3879 8.18039 13.3843C8.49249 12.3806 9.80432 12.0838 12.428 11.4902L13.1068 11.3366C13.8523 11.1679 14.2251 11.0836 14.5244 10.8564C14.8237 10.6291 15.0157 10.2848 15.3996 9.59603L15.7492 8.96897Z" fill="white"/>
<path fill-rule="evenodd" clip-rule="evenodd" d="M11.66 6.93659C9.01785 6.17522 6.18363 6.57738 3.44907 8.1788L3.17152 8.34135C2.69495 8.62044 2.08236 8.46035 1.80326 7.98378C1.52416 7.5072 1.68426 6.8946 2.16083 6.61551L2.43838 6.45298C5.5856 4.60987 8.98204 4.08351 12.2138 5.01479L12.491 5.09466C13.0217 5.24759 13.3279 5.80176 13.175 6.33246C13.022 6.86315 12.4679 7.16939 11.9372 7.01645L11.66 6.93659ZM6.44772 13.2487C6.4946 13.799 6.08651 14.2831 5.53622 14.3299C5.332 14.3474 5.17543 14.3572 5.04422 14.3656C4.80771 14.3806 4.6536 14.3904 4.45138 14.4292C4.18939 14.4795 3.84922 14.5859 3.23188 14.8946C2.7379 15.1416 2.13723 14.9414 1.89024 14.4474C1.64326 13.9534 1.84347 13.3527 2.33746 13.1058C3.05344 12.7478 3.57311 12.5613 4.07438 12.4651C4.40358 12.4019 4.7434 12.3797 5.04901 12.3598C5.16006 12.3526 5.26659 12.3457 5.36646 12.3371C5.91674 12.2903 6.40084 12.6984 6.44772 13.2487ZM7.88986 21.1415C6.31124 20.7715 4.64806 21.1384 3.40356 22.119C2.96976 22.4608 2.341 22.3862 1.99919 21.9524C1.65739 21.5186 1.73196 20.8899 2.16578 20.548C3.89616 19.1846 6.18483 18.6878 8.34615 19.1942C8.88387 19.3202 9.21763 19.8583 9.09163 20.396C8.96563 20.9338 8.42758 21.2675 7.88986 21.1415Z" fill="#626E8E"/>
</svg>
