<svg width="32" height="32" viewBox="0 0 32 32" fill="none" xmlns="http://www.w3.org/2000/svg">
<path fill-rule="evenodd" clip-rule="evenodd" d="M4.47721 17.0384C3.66363 18.2936 3.99941 20.0389 4.67097 23.5294C5.1544 26.0422 5.39612 27.2985 6.23364 28.1322C6.45093 28.3486 6.69405 28.5404 6.95813 28.7037C7.97593 29.3333 9.32719 29.3333 12.0297 29.3333H21.3036C24.0061 29.3333 25.3575 29.3333 26.3752 28.7037C26.6393 28.5404 26.8824 28.3486 27.0997 28.1322C27.9372 27.2985 28.1789 26.0422 28.6624 23.5294C29.3339 20.0389 29.6697 18.2936 28.8561 17.0384C28.6485 16.718 28.3924 16.4281 28.0961 16.1777C26.9348 15.1968 25.0577 15.1968 21.3036 15.1968H12.0297C8.27556 15.1968 6.39851 15.1968 5.23723 16.1777C4.94088 16.4281 4.68484 16.718 4.47721 17.0384ZM12.9269 22.9076C12.9269 22.3753 13.3835 21.9437 13.9468 21.9437H19.3864C19.9496 21.9437 20.4063 22.3753 20.4063 22.9076C20.4063 23.4398 19.9496 23.8714 19.3864 23.8714H13.9468C13.3835 23.8714 12.9269 23.4398 12.9269 22.9076Z" fill="white"/>
<path opacity="0.5" d="M4.76761 16.6462C4.90963 16.4782 5.06647 16.3214 5.23657 16.1777C6.39785 15.1967 8.27491 15.1967 12.029 15.1967H21.3029C25.0571 15.1967 26.9341 15.1967 28.0955 16.1777C28.266 16.3218 28.4232 16.479 28.5656 16.6477V13.0078C28.5656 11.7959 28.5656 10.7905 28.4519 9.98883C28.3319 9.1428 28.0701 8.39285 27.4445 7.77668C27.3425 7.67617 27.2348 7.58077 27.122 7.49084C26.4396 6.94705 25.6216 6.72468 24.6956 6.62152C23.8035 6.52215 22.6796 6.52217 21.3019 6.52219H20.8316C19.5221 6.52219 19.0527 6.51457 18.6275 6.40719C18.3776 6.34411 18.138 6.25601 17.9129 6.14512C17.534 5.95831 17.2037 5.67691 16.2763 4.85517L15.6441 4.29512C15.3787 4.05993 15.1976 3.89941 15.0035 3.75681C14.1705 3.14513 13.1564 2.77517 12.0946 2.6872C11.8474 2.66672 11.5951 2.66673 11.2174 2.66677L11.0622 2.66676C10.208 2.66661 9.64421 2.66652 9.15471 2.74835C7.01491 3.10604 5.28457 4.60199 4.86311 6.58108C4.76723 7.03133 4.76737 7.54721 4.7676 8.29145L4.76761 16.6462Z" fill="#626B87"/>
</svg>
