<svg width="32" height="32" viewBox="0 0 32 32" fill="none" xmlns="http://www.w3.org/2000/svg">
<path d="M15.9993 29.3334C23.3631 29.3334 29.3327 23.3638 29.3327 16.0001C29.3327 8.63628 23.3631 2.66675 15.9993 2.66675C8.63555 2.66675 2.66602 8.63628 2.66602 16.0001C2.66602 18.133 3.16684 20.1489 4.0573 21.9367C4.29394 22.4118 4.3727 22.9549 4.23551 23.4675L3.44136 26.4357C3.09662 27.7241 4.27536 28.9027 5.56382 28.5581L8.53187 27.7639C9.04459 27.6267 9.58763 27.7055 10.0627 27.9421C11.8505 28.8326 13.8664 29.3334 15.9993 29.3334Z" fill="white"/>
<path d="M17.6261 12.596C20.0976 14.1147 21.3333 14.8741 21.3333 16.0001C21.3333 17.1261 20.0976 17.8854 17.6261 19.4042C15.1208 20.9437 13.8681 21.7134 12.9341 21.1482C12 20.583 12 19.0554 12 16.0001C12 12.9448 12 11.4171 12.9341 10.852C13.8681 10.2868 15.1208 11.0565 17.6261 12.596Z" fill="#626B87"/>
</svg>
