<svg width="83" height="28" viewBox="0 0 83 28" fill="none" xmlns="http://www.w3.org/2000/svg">
<g clip-path="url(#clip0_140_472)">
<path d="M19.2668 14.8782C19.233 11.3351 22.1614 9.63285 22.2931 9.55179C20.6448 7.14359 18.0846 6.81259 17.1727 6.77544C14.9942 6.55252 12.9204 8.05891 11.8125 8.05891C10.7047 8.05891 8.999 6.80584 7.19201 6.84299C4.8142 6.87676 2.62216 8.22441 1.39611 10.3523C-1.06951 14.6283 0.767881 20.9781 3.17608 24.4536C4.35485 26.1525 5.75316 28.0676 7.59731 27.9967C9.37391 27.9257 10.0427 26.8483 12.184 26.8483C14.3254 26.8483 14.93 27.9967 16.8046 27.9629C18.7129 27.9257 19.922 26.2268 21.0907 24.5212C22.4349 22.5453 22.9922 20.637 23.026 20.5356C22.9821 20.5187 19.3073 19.1103 19.2668 14.8782Z" fill="white"/>
<path d="M15.7441 4.47189C16.7236 3.28637 17.3822 1.6415 17.2032 0C15.7947 0.0574186 14.0891 0.938963 13.0792 2.12449C12.174 3.17153 11.3803 4.8468 11.5964 6.45452C13.1602 6.57612 14.768 5.65404 15.7441 4.47189ZM31.6186 18.3604L29.9974 23.2748H27.9134L33.2196 7.65694H35.6514L40.9779 23.2748H38.823L37.1545 18.3604H31.6186ZM36.739 16.7831L35.2124 12.2876C34.8645 11.2676 34.6348 10.3421 34.4017 9.43691H34.3578C34.1248 10.3624 33.8715 11.3115 33.5709 12.2639L32.0442 16.7797L36.739 16.7831ZM42.5586 15.7192C42.5586 14.2837 42.5147 13.1218 42.464 12.0579H44.2946L44.3892 13.9831H44.4331C45.2674 12.6152 46.588 11.8046 48.4186 11.8046C51.1308 11.8046 53.1675 14.0979 53.1675 17.5059C53.1675 21.5387 50.712 23.5281 48.0707 23.5281C46.588 23.5281 45.291 22.8796 44.6189 21.7684H44.575V27.8615H42.5586V15.7192ZM44.5716 18.7083C44.5716 19.0123 44.6155 19.2859 44.6662 19.5426C45.0377 20.9544 46.2638 21.9305 47.7262 21.9305C49.8811 21.9305 51.1342 20.1708 51.1342 17.5971C51.1342 15.3476 49.952 13.4292 47.7972 13.4292C46.409 13.4292 45.112 14.4256 44.7134 15.9556C44.6425 16.2089 44.575 16.5129 44.575 16.7899L44.5716 18.7083ZM55.2751 15.7192C55.2751 14.2837 55.2312 13.1218 55.1805 12.0579H57.0112L57.1057 13.9831H57.1496C57.9839 12.6152 59.3045 11.8046 61.1352 11.8046C63.8473 11.8046 65.884 14.0979 65.884 17.5059C65.884 21.5387 63.4285 23.5281 60.7873 23.5281C59.3045 23.5281 58.0075 22.8796 57.3354 21.7684H57.2915V27.8615H55.2751V15.7192ZM57.2915 18.7083C57.2915 19.0123 57.3354 19.2859 57.3861 19.5426C57.7576 20.9544 58.9837 21.9305 60.4461 21.9305C62.601 21.9305 63.8541 20.1708 63.8541 17.5971C63.8541 15.3476 62.672 13.4292 60.5171 13.4292C59.1289 13.4292 57.8319 14.4256 57.4333 15.9556C57.3624 16.2089 57.2949 16.5129 57.2949 16.7899L57.2915 18.7083ZM67.995 6.82268H70.035V23.2714H67.995V6.82268ZM74.1354 18.0362C74.1793 20.7923 75.9424 21.9305 77.9791 21.9305C79.4382 21.9305 80.3197 21.6772 81.083 21.353L81.4309 22.8121C80.7149 23.1363 79.4855 23.5078 77.7021 23.5078C74.2502 23.5078 72.1866 21.2381 72.1866 17.8538C72.1866 14.4695 74.1793 11.8046 77.4454 11.8046C81.1067 11.8046 82.0794 15.0234 82.0794 17.0871C82.0794 17.5059 82.0355 17.8268 82.0085 18.0362H74.1354ZM80.1137 16.5771C80.1373 15.2801 79.58 13.2637 77.2867 13.2637C75.223 13.2637 74.3212 15.1653 74.159 16.5771H80.1137Z" fill="white"/>
</g>
<defs>
<clipPath id="clip0_140_472">
<rect width="81.8552" height="28" fill="white" transform="translate(0.226562)"/>
</clipPath>
</defs>
</svg>
