<svg width="91" height="28" viewBox="0 0 91 28" fill="none" xmlns="http://www.w3.org/2000/svg">
<path d="M47.3574 7.78836H44.7715L43.3131 10.1532H45.8977L47.3574 7.78836ZM54.0655 14.0106C52.7109 14.1226 50.3175 15.3345 49.014 17.9822C47.7104 20.63 47.7057 22.2645 47.7057 22.2645C47.7057 22.2645 48.3932 21.5108 49.4471 20.7217C50.501 19.9326 51.2853 19.6522 51.2853 19.6522C51.2853 19.6522 51.4809 18.6801 51.9676 17.6634C52.4409 16.6743 53.192 15.6447 54.1213 15.411C56.005 14.9369 55.103 18.3751 53.7194 20.617C52.9757 21.8219 50.3379 25.2847 48.0669 25.2847C45.796 25.2847 45.3578 23.0951 45.8367 21.0479C46.3152 19.0011 46.9776 16.4005 50.2907 11.6752C53.6039 6.9499 57.19 4.14856 59.2658 2.97135C61.3979 1.76299 62.2666 2.29254 62.2666 2.29254C62.2666 2.29254 59.5449 3.96902 57.9965 5.98598C56.516 7.91383 55.6325 10.0831 56.3195 11.1461C56.9737 12.1589 59.2797 12.1779 61.8188 8.51173C64.3251 4.8927 63.6922 2.74076 63.6922 2.74076C63.6922 2.74076 63.995 2.64211 64.1983 2.61486C65.4206 2.45218 66.3996 2.7745 67.9156 3.55195C69.5038 4.36661 71.0276 5.67319 73.1155 6.74224C73.7441 6.05348 74.4437 5.32188 75.1796 4.60803C72.3648 3.23786 70.228 1.28492 67.4674 1.09759C65.0645 0.934918 63.17 1.81058 63.17 1.81058C63.17 1.81058 62.4371 0.812481 60.1761 1.13826C57.9151 1.46447 50.9492 4.377 45.0225 13.8682C39.6638 22.4496 42.1887 27.3675 46.0405 27.3112C50.2159 27.2498 54.1879 22.6063 55.5321 18.777C56.8764 14.9477 55.2877 13.9098 54.0655 14.0106ZM62.2623 6.0366C61.5605 7.74726 60.5274 8.94264 59.5107 9.85551C58.2067 11.0267 57.4911 10.9873 57.1814 10.7519C56.3723 10.1359 57.4578 7.81259 59.342 5.73505C61.2183 3.66574 62.8338 3.02197 62.8338 3.02197C62.8338 3.0462 63.1025 3.98546 62.2623 6.0366ZM85.5136 3.542C83.6031 4.77113 80.954 5.88431 78.4114 5.63901C77.7685 6.30657 77.0789 7.0758 76.3871 7.91729C80.8 8.78776 84.66 6.05391 86.7151 3.72458C87.997 2.27221 88.6299 0.975586 88.6299 0.975586C88.6299 0.975586 87.406 2.32456 85.5136 3.542Z" fill="white"/>
<path d="M83.427 14.3269H80.7079L80.2661 15.0096C80.2661 15.0096 79.7115 14.0089 78.7722 14.0249C77.1628 14.0526 75.5521 15.2813 73.6805 17.4125C72.3086 18.9739 70.0347 22.4501 70.0347 22.4501C70.0347 22.4501 68.2898 25.139 67.4072 24.9283C65.9025 24.5688 68.6701 19.0011 68.6701 19.0011C68.6701 19.0011 70.1251 18.1025 72.0105 16.516C73.1977 15.5175 74.5635 14.1439 75.819 12.8706C76.9608 11.7124 78.3063 10.1398 79.5852 8.41702C79.2577 8.46894 78.9219 8.50398 78.5797 8.52086C77.4328 10.0334 76.2084 11.3871 75.1671 12.4631C73.6169 14.0647 72.1909 15.3752 71.1548 16.211C70.1618 17.0114 69.525 17.3718 69.525 17.3718C69.525 17.3718 71.4191 13.4819 74.5761 9.18409C77.733 4.88668 82.1533 0.894287 81.8068 2.78838C81.7077 3.33221 81.3698 4.11226 80.8597 5.03811C81.2188 4.96326 81.5675 4.86981 81.9041 4.76338C82.6647 3.19333 82.9238 1.89931 82.3562 1.52551C80.0399 2.0802e-05 74.1482 6.31223 71.1946 9.97842C68.2414 13.6446 65.5685 19.2473 65.5685 19.2473C65.5685 19.2473 65.1064 19.4411 64.5955 19.538C64.2732 19.5995 64.1356 19.586 64.0828 19.5653C64.0564 19.5545 64.0534 19.5363 64.0534 19.5363C64.0534 19.5363 66.6514 14.6795 63.9915 14.0353C61.4247 13.414 56.9772 18.1627 55.3959 21.4659C54.3108 23.732 53.6986 26.5849 55.5594 27.2641C57.5746 28 60.9977 24.3209 61.8024 23.2518C62.6071 22.1823 63.6117 20.4042 63.6117 20.4042C63.6117 20.4042 64.1032 20.3782 64.3718 20.3388C64.8858 20.2631 65.1264 20.2 65.1264 20.2C65.1264 20.2 64.7932 21.0726 64.4328 22.1789C63.7609 24.2417 63.1548 27.1931 65.5737 27.332C67.1148 27.4198 69.3757 24.6367 69.3757 24.6367C69.3757 24.6367 68.7674 27.1114 70.7675 27.332C72.2441 27.4947 74.3931 25.2134 74.3931 25.2134C74.3931 25.2134 73.9249 27.1789 75.4219 27.3519C76.7034 27.5003 78.5226 25.9978 80.0143 24.3446C81.6432 22.5397 82.8927 20.5629 82.8927 20.5629H81.9456C81.9456 20.5629 79.8495 23.7446 78.3777 24.596C77.1693 25.2952 77.5833 24.1751 77.9498 23.588C78.3539 22.9403 83.4257 14.3269 83.4257 14.3273L83.427 14.3269ZM62.7101 20.3194C62.6729 20.4046 61.9923 21.5887 61.2642 22.5198C60.4798 23.5231 59.0439 25.033 58.1808 24.7137C56.8314 24.2144 58.3162 21.2746 59.287 19.8487C60.2579 18.4227 60.3682 18.3262 60.3954 18.289C60.4227 18.2518 60.45 18.2176 60.4737 18.2617C60.4975 18.3059 60.8064 18.8917 61.4165 19.4C62.0291 19.9105 62.6183 20.1801 62.6659 20.1969C62.7135 20.2138 62.7477 20.2341 62.7101 20.3189V20.3194ZM63.3171 19.2598C63.2318 19.4017 63.1708 19.4087 62.9939 19.3615C62.6824 19.2771 61.3918 18.6805 61.4018 17.3571C61.4108 16.0674 63.2288 14.8041 63.9418 15.344C64.6072 15.8476 64.2892 17.1351 64.0383 17.7919C63.7878 18.4482 63.3729 19.1668 63.3171 19.2598ZM75.6698 22.4501C75.3107 22.9425 75.0104 23.3872 74.7396 23.6996C74.1607 24.368 73.783 24.6791 73.4464 24.7613C73.2768 24.8024 73.0666 24.7924 72.9273 24.7081C72.4332 24.4074 72.7793 23.2367 73.6394 21.6627C74.4264 20.2242 75.3358 18.7848 76.8306 17.1278C78.3314 15.4643 78.9055 15.3842 79.3256 15.4033C79.6791 15.4184 79.7292 15.7901 79.7292 15.7901C79.7292 15.7901 79.7041 15.8762 79.6479 15.9735C79.1525 16.8323 76.6571 21.0964 75.6693 22.4501H75.6698ZM35.5611 24.5311C33.9123 23.5122 31.7971 22.8585 29.367 22.8373C23.1067 22.7828 16.2904 25.8243 11.6737 25.8654C6.22853 25.913 5.95727 21.7237 6.36092 19.4234C7.22966 14.4675 10.7449 9.7396 13.005 7.24673C15.2655 4.75386 17.6342 2.81953 19.6036 2.32503C21.573 1.83052 21.3878 3.32832 21.1468 3.53296C20.898 3.53815 20.4208 3.59179 20.15 3.77913C19.726 4.07159 19.1597 4.6072 19.1242 5.45647C19.0632 6.76477 20.754 6.99407 21.9762 4.2546C22.8099 2.38603 21.4877 1.11796 20.3897 0.995957C18.8837 0.828093 16.582 1.35159 13.8348 3.11719C9.05324 6.18979 2.65753 13.013 2.49442 20.5833C2.4014 24.9019 5.22265 27.332 9.09347 27.332C12.9643 27.332 18.2196 24.9616 23.3511 24.901C26.5284 24.8738 28.5848 25.9874 29.6261 27.801C29.6261 27.801 30.661 26.0795 32.9657 25.9874C35.2457 25.8957 37.7558 26.5347 39.8165 27.9831C39.129 26.9898 37.1856 25.5348 35.5606 24.5311H35.5611Z" fill="white"/>
<path d="M21.3051 7.52362C18.6807 6.85476 14.3223 11.3222 12.4857 14.9581C11.3531 17.2009 10.8564 20.0195 12.873 20.7529C14.8895 21.4862 18.3108 17.8096 19.1155 16.7406C19.9202 15.6711 21.2372 13.5291 21.2372 13.5291C21.2372 13.5291 21.6413 13.4512 21.906 13.3898C22.1708 13.3283 22.5987 13.2063 22.5987 13.2063C22.5987 13.2063 22.1025 14.0907 21.6547 14.997C21.1238 16.0717 19.6814 19.6492 22.4663 20.7222C25.127 21.7471 28.9148 17.473 29.1138 17.3921C29.1138 17.3921 27.9863 20.3047 29.7377 20.7529C31.6595 21.2443 33.7655 18.7822 33.7655 18.7822C33.7655 18.7822 33.3221 20.6304 34.8195 20.8039C37.501 21.1141 42.244 14.2555 42.244 14.2555H41.2965C41.2965 14.2555 38.8828 17.3614 37.722 18.003C36.5613 18.6446 36.9788 17.5046 37.2942 16.995C37.6965 16.3464 42.8242 7.77844 42.8242 7.77844H40.105L39.7896 8.27727C39.7896 8.27727 39.2294 7.42195 38.2927 7.48295C35.5675 7.66076 32.3249 12.0045 30.8989 13.9189C29.4733 15.8338 26.3977 19.4896 24.7783 18.838C23.0136 18.1276 24.7684 14.8664 25.9291 12.9515C27.1929 10.8671 29.4327 8.8025 30.3183 8.78649C31.4081 8.76616 30.9802 9.75387 30.9802 9.75387C30.9802 9.75387 30.1656 9.6522 29.575 10.3955C29.1571 10.9211 28.811 11.6886 29.2081 12.1061C29.8497 12.7806 30.6852 12.0958 31.184 11.3317C32.7393 8.9509 31.6015 7.69624 30.3797 7.51323C27.777 7.12256 25.3793 10.4664 23.5566 11.709C22.2919 12.5704 21.7637 12.5033 21.7637 12.5033C21.7637 12.5033 23.9576 8.1994 21.3055 7.52318L21.3051 7.52362ZM33.088 15.2229C33.875 13.7839 34.9471 12.3947 36.3424 10.6533C37.7376 8.91196 38.432 8.77092 38.8521 8.78995C39.2056 8.80553 39.2557 9.17673 39.2557 9.17673C39.2557 9.17673 36.2242 14.4588 35.1245 15.9661C34.7654 16.4585 34.4582 16.8756 34.1874 17.1884C33.6085 17.8568 33.188 18.18 32.8635 18.2604C32.6939 18.302 32.4836 18.2916 32.3439 18.2068C31.8498 17.9061 32.2267 16.7964 33.0876 15.2229H33.088ZM20.2222 13.5088C20.1846 13.5935 19.3188 15.0252 18.5911 15.9562C17.8072 16.9595 16.3583 18.4755 15.4952 18.1562C14.1458 17.6569 15.5852 14.7374 16.556 13.3119C17.5269 11.8859 17.6692 11.7025 17.6969 11.6657C17.7241 11.6281 17.751 11.5939 17.7748 11.6385C17.7986 11.6826 18.1075 12.3177 18.7763 12.7451C19.4452 13.173 20.1309 13.3699 20.1785 13.3867C20.2261 13.4036 20.2603 13.4244 20.2226 13.5088H20.2222ZM21.351 11.2802C21.1 11.9374 20.8759 12.3514 20.8296 12.4492C20.7552 12.6058 20.5687 12.5556 20.5687 12.5556C20.3563 12.5461 18.7049 12.1693 18.7145 10.8459C18.7235 9.55616 20.5419 8.29285 21.2545 8.83278C21.9199 9.33638 21.6019 10.6239 21.351 11.2802ZM81.3819 25.762C81.2231 25.672 81.0466 25.6274 80.8523 25.6274C80.6581 25.6274 80.4815 25.6724 80.3228 25.762C80.164 25.852 80.0394 25.974 79.9481 26.1293C79.8572 26.2842 79.8114 26.4529 79.8114 26.6346C79.8114 26.8163 79.8568 26.9881 79.9481 27.1421C80.0389 27.2957 80.164 27.4177 80.3228 27.5072C80.4815 27.5972 80.6581 27.6418 80.8523 27.6418C81.0466 27.6418 81.2231 27.5968 81.3819 27.5072C81.5406 27.4177 81.6652 27.2957 81.7565 27.1421C81.8474 26.9885 81.8932 26.8193 81.8932 26.6346C81.8932 26.4499 81.8478 26.2842 81.7565 26.1293C81.6657 25.9744 81.5406 25.852 81.3819 25.762ZM81.5683 27.0517C81.4995 27.1745 81.4026 27.271 81.2785 27.3415C81.1543 27.4116 81.012 27.4467 80.8523 27.4467C80.6927 27.4467 80.5503 27.4116 80.4262 27.3415C80.302 27.2715 80.2055 27.175 80.1363 27.0517C80.0675 26.9288 80.0329 26.7895 80.0329 26.6346C80.0329 26.4797 80.0675 26.3443 80.1363 26.2214C80.2051 26.0986 80.3024 26.0021 80.4279 25.9316C80.5534 25.861 80.6948 25.8264 80.8523 25.8264C81.0098 25.8264 81.1513 25.8615 81.2767 25.9316C81.4022 26.0017 81.4995 26.0981 81.5683 26.2214C81.6371 26.3443 81.6717 26.4823 81.6717 26.6346C81.6717 26.7869 81.6371 26.9288 81.5683 27.0517Z" fill="white"/>
<path d="M81.2417 26.6181C81.2711 26.5701 81.2858 26.5165 81.2858 26.4576C81.2858 26.3763 81.2594 26.3084 81.2066 26.253C81.1538 26.1976 81.0829 26.1699 80.9946 26.1699H80.4668V27.0815H80.6991V26.7492H80.8761L81.0902 27.0815H81.3559L81.1162 26.7272C81.1703 26.7025 81.2122 26.6662 81.2417 26.6181ZM81.0201 26.5221C81.0028 26.5381 80.9795 26.5459 80.9501 26.5459H80.6991V26.3689H80.9501C80.9795 26.3689 81.0028 26.3772 81.0201 26.3927C81.0375 26.4087 81.0461 26.4304 81.0461 26.4572C81.0461 26.484 81.0375 26.5057 81.0201 26.5217V26.5221Z" fill="white"/>
</svg>
