<svg width="152" height="28" viewBox="0 0 152 28" fill="none" xmlns="http://www.w3.org/2000/svg">
<g clip-path="url(#clip0_140_475)">
<path d="M14.1484 0H6.30218L6.28715 0.0272807L5.20427 1.99984H14.1484C20.7737 1.99984 26.148 7.37247 26.148 14C26.148 20.6275 20.7754 26.0002 14.1484 26.0002C7.52146 26.0002 2.14828 20.627 2.14828 14C2.14773 12.7463 2.34406 11.5004 2.73008 10.3076H5.0211C3.39707 14.321 4.58517 18.9243 7.94865 21.6503C11.3121 24.3764 16.0617 24.5855 19.6517 22.1655C23.2417 19.7455 24.8297 15.2644 23.5646 11.1239C22.2994 6.98341 18.4779 4.15501 14.1484 4.15501H4.02174L2.92439 6.1543H14.1484C17.6743 6.15502 20.7665 8.50801 21.7071 11.9061C22.6478 15.3042 21.2057 18.9124 18.182 20.7261C15.1584 22.5397 11.2963 22.1133 8.74118 19.6836C6.18604 17.254 5.56594 13.4181 7.22527 10.3071H9.82083C8.08834 12.3409 8.00455 15.3062 9.6194 17.4346C11.2342 19.5631 14.1126 20.281 16.5378 19.1602C18.963 18.0395 20.2817 15.3821 19.7072 12.7729C19.1328 10.1637 16.8201 8.30585 14.1484 8.30725H1.74185L0.643944 10.3076C0.315304 11.5109 0.148665 12.7527 0.148438 14C0.148438 21.7316 6.41631 28 14.1484 28C21.8806 28 28.1484 21.7316 28.1484 14C28.1484 6.26843 21.88 0 14.1484 0ZM14.1484 10.3076C16.1877 10.3076 17.8408 11.9607 17.8408 14C17.8408 16.0393 16.1877 17.6924 14.1484 17.6924C12.1092 17.6924 10.4561 16.0393 10.4561 14C10.4561 11.9607 12.1092 10.3076 14.1484 10.3076ZM34.3022 14.2956C34.3022 10.4062 36.9117 7.67367 40.825 7.67367C43.2374 7.67367 45.2067 8.73149 46.2405 10.5047L43.9762 12.1048C43.2619 10.9718 42.1791 10.4307 40.8991 10.4307C38.7834 10.4307 37.3793 11.9339 37.3793 14.2956C37.3793 16.634 38.7823 18.16 40.8991 18.16C42.1796 18.16 43.2619 17.5938 43.9762 16.4614L46.2405 18.0615C45.2067 19.8587 43.2374 20.8925 40.825 20.8925C36.9117 20.8925 34.3022 18.16 34.3022 14.2956ZM46.6659 14.2956C46.6659 10.6523 49.2509 7.67367 53.2634 7.67367C57.3004 7.67367 59.8603 10.6523 59.8603 14.2956C59.8603 17.9145 57.2992 20.8925 53.2634 20.8925C49.2537 20.8925 46.6659 17.9139 46.6659 14.2956ZM56.7831 14.2956C56.7831 12.0063 55.4291 10.4062 53.2634 10.4062C51.0976 10.4062 49.743 12.0063 49.743 14.2956C49.743 16.5599 51.0971 18.16 53.2634 18.16C55.4297 18.16 56.7831 16.5599 56.7831 14.2956ZM79.5725 8.01718L75.7309 20.5468H72.4873L69.7721 11.7095L67.0329 20.5468H63.7848L59.9655 8.01718H62.9452L65.5402 17.051L68.3273 8.01718H71.2107L73.9984 17.051L76.5689 8.01718H79.5725ZM121.771 8.01718L117.926 20.5468H114.682L111.967 11.7095L109.228 20.5468H105.986L102.166 8.01996H105.146L107.741 17.0538L110.525 8.01718H113.408L116.196 17.051L118.767 8.01718H121.771ZM88.5601 7.9693V10.7753C88.1043 10.6998 87.6435 10.6587 87.1816 10.6523C84.9908 10.6523 83.8339 11.7602 83.8339 14.3691V20.549H80.8324V8.01718H83.7832V10.1106C84.399 8.65855 85.7524 7.79671 87.4756 7.79671C87.8445 7.78951 88.2117 7.84795 88.5601 7.9693ZM101.02 8.01718V19.2913C101.02 23.5009 98.6812 25.8142 94.5452 25.8142C92.4039 25.8142 90.4347 25.1745 89.2527 24.0666L90.6067 21.8758C91.6645 22.7109 93.0436 23.1312 94.3731 23.1312C96.687 23.1312 98.0655 21.8268 98.0655 19.2897V18.209C97.3517 19.5875 95.8257 20.4243 93.9789 20.4243C91.3205 20.4243 89.6469 18.7507 89.6469 15.6981V8.01718H92.65V14.9353C92.65 16.8556 93.4378 17.6924 95.0128 17.6924C96.8345 17.6924 98.041 16.585 98.041 14.7627V8.01718H101.02ZM122.561 4.05536C122.561 2.97192 123.324 2.18412 124.481 2.18412C125.613 2.18412 126.374 2.97192 126.374 4.05536C126.374 5.13879 125.611 5.92603 124.481 5.92603C123.324 5.92603 122.561 5.13823 122.561 4.05536ZM122.979 8.01829H125.983V20.5479H122.979V8.01829ZM127.494 18.5047L129.118 16.6089C130.102 17.6924 131.629 18.3321 133.229 18.3321C134.657 18.3321 135.444 17.7909 135.444 17.0031C135.444 16.3383 134.952 15.9202 133.697 15.6246L131.654 15.1569C129.044 14.5417 127.937 13.3352 127.937 11.6121C127.937 9.29826 129.856 7.67367 133.106 7.67367C135.321 7.67367 137.168 8.43641 138.25 9.66794L136.65 11.6121C135.568 10.6768 134.337 10.2336 133.032 10.2336C131.629 10.2336 130.939 10.7508 130.939 11.5141C130.939 12.1048 131.357 12.474 132.687 12.769L134.853 13.2862C137.487 13.877 138.447 15.0829 138.447 16.806C138.447 19.2925 136.527 20.8925 133.204 20.8925C130.718 20.8925 128.626 19.9572 127.494 18.5047ZM151.784 15.1814H142.453C142.773 17.2002 144.102 18.2831 146.146 18.2831C147.549 18.2831 148.73 17.7664 149.641 16.7075L151.438 18.4802C150.257 20.0062 148.361 20.8925 146.047 20.8925C142.059 20.8925 139.401 18.2831 139.401 14.3446C139.401 10.4552 141.962 7.67367 145.752 7.67367C149.395 7.67367 151.856 10.2091 151.856 14.0245C151.856 14.4113 151.832 14.7976 151.784 15.1814ZM142.453 13.1393H148.856C148.708 11.2925 147.575 10.2837 145.779 10.2837C143.932 10.2831 142.775 11.3415 142.453 13.1393Z" fill="white"/>
</g>
<defs>
<clipPath id="clip0_140_475">
<rect width="151.844" height="28" fill="white" transform="translate(0.0800781)"/>
</clipPath>
</defs>
</svg>
