<svg width="145" height="28" viewBox="0 0 145 28" fill="none" xmlns="http://www.w3.org/2000/svg">
<g clip-path="url(#clip0_140_486)">
<path d="M11.487 4.41806C9.79103 4.41806 9.28226 5.16427 9.28226 6.82627V9.57366H13.8273L13.3864 14.0509H9.28226V27.5843H3.82139V14.0509H0.158203V9.60758H3.82139V6.92802C3.82139 2.38296 5.65299 0.00866699 10.7068 0.00866699C11.7583 0.00866699 12.8437 0.0765038 13.8952 0.212177V4.41806" fill="white"/>
<path d="M14.1999 18.0193C14.1999 12.9994 16.5742 9.20056 21.5941 9.20056C24.3076 9.20056 25.9696 10.5912 26.7837 12.355V9.60758H32.0071V27.6183H26.7497V24.9048C26.0035 26.6346 24.2737 27.9914 21.5602 27.9914C16.5742 27.9914 14.166 24.2264 14.166 19.1726M19.6608 19.2404C19.6608 21.92 20.6444 23.7176 23.1883 23.7176C25.4269 23.7176 26.5462 22.0896 26.5462 19.5118V17.6802C26.5462 15.1024 25.393 13.4743 23.1883 13.4743C20.6444 13.4743 19.6608 15.238 19.6608 17.9515V19.2404Z" fill="white"/>
<path d="M43.3366 9.20056C45.4396 9.20056 47.4747 9.6415 48.56 10.4216L47.339 14.2883C46.2197 13.7456 44.9647 13.4743 43.7097 13.4743C40.7588 13.4743 39.4699 15.1702 39.4699 18.0872V19.1387C39.4699 22.0556 40.7588 23.7516 43.7097 23.7516C44.9647 23.7516 46.2197 23.4463 47.339 22.9036L48.56 26.7703C47.4747 27.5165 45.4735 27.9914 43.3366 27.9914C36.926 27.9914 34.043 24.5656 34.043 19.0369V18.1889C34.043 12.6602 36.926 9.20056 43.3366 9.20056Z" fill="white"/>
<path d="M49.2715 19.2743V17.6802C49.2715 12.5585 52.1885 9.20056 58.1242 9.20056C63.7207 9.20056 66.1968 12.5924 66.1968 17.6123V20.4954H54.7323C54.8341 22.9714 55.9534 24.0568 58.9721 24.0568C60.9394 24.0568 62.9067 23.6837 64.7722 22.9714L65.7558 26.7025C64.3313 27.4487 61.3804 28.0253 58.7686 28.0253C51.8493 27.9914 49.2715 24.5656 49.2715 19.2743ZM54.7323 16.9H61.3125V16.4591C61.3125 14.4918 60.5324 12.9316 58.1242 12.9316C55.6821 12.9316 54.7323 14.4918 54.7323 16.9Z" fill="white"/>
<path d="M86.4135 19.1726C86.4135 24.1925 84.0053 27.9914 78.9854 27.9914C76.2719 27.9914 74.3725 26.6347 73.6263 24.9048V27.6183H68.4707V0.551396L73.9316 0.0765381V12.1176C74.7117 10.5234 76.4755 9.23451 79.0193 9.23451C84.0053 9.23451 86.4475 12.9995 86.4475 18.0533M80.9527 17.9176C80.9527 15.3737 79.969 13.4743 77.3573 13.4743C75.1187 13.4743 73.9316 15.0685 73.9316 17.6463V19.5457C73.9316 22.1235 75.1526 23.7177 77.3573 23.7177C79.969 23.7177 80.9527 21.8182 80.9527 19.2744V17.9176Z" fill="white"/>
<path d="M88.2109 19.0369V18.1211C88.2109 12.9316 91.1618 9.20056 97.1654 9.20056C103.169 9.20056 106.12 12.9316 106.12 18.1211V19.0369C106.12 24.2264 103.169 27.9574 97.1654 27.9574C91.1618 27.9574 88.2109 24.2603 88.2109 19.0369ZM100.693 17.748C100.693 15.3737 99.7093 13.4743 97.1654 13.4743C94.6215 13.4743 93.6379 15.3737 93.6379 17.748V19.4439C93.6379 21.8182 94.6215 23.7176 97.1654 23.7176C99.7093 23.7176 100.693 21.8182 100.693 19.4439V17.748Z" fill="white"/>
<path d="M107.984 19.0369V18.1211C107.984 12.9316 110.935 9.20056 116.939 9.20056C122.942 9.20056 125.893 12.9316 125.893 18.1211V19.0369C125.893 24.2264 122.942 27.9574 116.939 27.9574C110.935 27.9574 107.984 24.2603 107.984 19.0369ZM120.466 17.748C120.466 15.3737 119.483 13.4743 116.939 13.4743C114.395 13.4743 113.411 15.3737 113.411 17.748V19.4439C113.411 21.8182 114.395 23.7176 116.939 23.7176C119.483 23.7176 120.466 21.8182 120.466 19.4439V17.748Z" fill="white"/>
<path d="M133.39 18.189L138.783 9.57368H144.549L138.919 18.4942L144.786 27.6183H138.986L133.39 18.7995V27.6183H127.963V0.551379L133.39 0.0426025" fill="white"/>
</g>
<defs>
<clipPath id="clip0_140_486">
<rect width="144.628" height="28" fill="white" transform="translate(0.158203)"/>
</clipPath>
</defs>
</svg>
