<svg width="293" height="173" viewBox="0 0 293 173" fill="none" xmlns="http://www.w3.org/2000/svg">
<g clip-path="url(#clip0_160_228)">
<rect x="0.597656" y="0.582031" width="292" height="172" rx="8" fill="#091224"/>
<rect width="188" height="235.357" rx="4" transform="matrix(0.972432 -0.233189 0.283762 0.958895 22.9492 85.6348)" fill="#091224"/>
<rect x="0.628097" y="0.362853" width="187" height="234.357" rx="3.5" transform="matrix(0.972432 -0.233189 0.283762 0.958895 22.8636 85.7961)" stroke="#1E252F" stroke-opacity="0.4"/>
<rect width="188" height="235.357" rx="4" transform="matrix(0.972432 -0.233189 0.283762 0.958895 33.1348 50.4863)" fill="#040B1A"/>
<rect x="0.628097" y="0.362853" width="187" height="234.357" rx="3.5" transform="matrix(0.972432 -0.233189 0.283762 0.958895 33.0491 50.6477)" stroke="#1E252F" stroke-opacity="0.7"/>
<g clip-path="url(#clip1_160_228)">
<rect width="188" height="235.357" rx="4" transform="matrix(0.972432 -0.233189 0.283762 0.958895 49.0566 23.5757)" fill="#01060C"/>
<path d="M66.0431 35.719L64.0283 28.9108L68.521 27.8335L68.8019 28.7828L65.3595 29.6083L65.9469 31.5932L69.2726 30.7957L69.545 31.7162L66.2193 32.5137L66.8124 34.5178L70.3326 33.6737L70.6135 34.623L66.0431 35.719ZM72.9412 34.0648L69.5451 29.4159L70.644 29.1524L73.2571 32.8799L73.464 28.4761L74.5726 28.2103L74.1957 33.764L72.9412 34.0648ZM78.6465 32.8199C77.149 33.179 75.8839 32.3527 75.4072 30.7418C74.9304 29.1309 75.5713 27.8475 77.0397 27.4954C78.4497 27.1573 79.7047 27.9141 80.2126 29.6305L80.2892 29.8894L76.5745 30.7802C76.9183 31.7658 77.5812 32.1408 78.398 31.945C79.0107 31.7981 79.3311 31.4029 79.3546 30.8838L80.4441 30.6944C80.4527 31.709 79.794 32.5447 78.6465 32.8199ZM78.9634 29.3858C78.6383 28.4985 78.0049 28.1882 77.295 28.3584C76.5657 28.5333 76.2088 29.1221 76.3475 30.0131L78.9634 29.3858ZM81.7651 31.9488L80.2555 26.8475L81.1987 26.6213L81.4889 27.4965C81.5569 26.7408 82.0593 26.2917 82.7595 26.1238C83.9166 25.8463 84.7539 26.5287 85.083 27.6411L86.0535 30.9205L85.0227 31.1677L84.1431 28.1951C83.8763 27.2937 83.4496 26.8723 82.73 27.0449C82.0007 27.2198 81.6494 27.8277 81.9162 28.7291L82.7958 31.7017L81.7651 31.9488ZM88.908 30.236C87.9259 30.4715 87.344 30.1592 87.0602 29.2003L86.2061 26.314L85.4184 26.5029L85.1716 25.6686L85.9592 25.4798L85.6045 24.2811L86.6353 24.034L86.99 25.2326L88.3611 24.9038L88.608 25.738L87.2369 26.0668L88.0683 28.8764C88.2102 29.3558 88.457 29.4507 88.8848 29.3481L89.6239 29.1709L89.8707 30.0051L88.908 30.236ZM92.8199 29.2979L90.8052 22.4897L95.2881 21.4147L95.569 22.364L92.1363 23.1872L92.7492 25.2584L96.0069 24.4772L96.2793 25.3978L93.0216 26.179L93.8701 29.0461L92.8199 29.2979ZM100.397 27.6041C98.9095 27.9608 97.6278 27.1488 97.1482 25.5283C96.6687 23.9078 97.3318 22.6294 98.8196 22.2726C100.298 21.9182 101.579 22.7302 102.059 24.3507C102.539 25.9712 101.875 27.2496 100.397 27.6041ZM100.136 26.7219C101.011 26.512 101.321 25.7291 100.989 24.6072C100.657 23.4853 99.9559 22.9449 99.0807 23.1548C98.2055 23.3647 97.8859 24.1499 98.2179 25.2718C98.5499 26.3937 99.2611 26.9317 100.136 26.7219ZM103.62 26.708L102.11 21.6067L103.054 21.3805L103.37 22.342C103.365 21.6241 103.676 21.2313 104.318 21.0773L104.814 20.9584L105.083 21.8694L104.587 21.9883C103.8 22.1772 103.521 22.6444 103.76 23.4499L104.651 26.4608L103.62 26.708ZM106.937 25.9126L105.427 20.8113L106.371 20.5851L106.651 21.4626C106.72 20.7787 107.144 20.2765 107.795 20.1202C108.563 19.936 109.215 20.2009 109.634 20.8089C109.666 20.0721 110.08 19.5723 110.819 19.395C111.909 19.1339 112.735 19.675 113.104 20.9216L114.075 24.201L113.044 24.4482L112.147 21.4181C111.886 20.5359 111.432 20.1622 110.771 20.3207C110.119 20.477 109.851 21.0855 110.107 21.9485L110.992 24.9402L110.01 25.1757L109.125 22.184C108.869 21.321 108.446 20.8781 107.756 21.0436C107.095 21.2022 106.83 21.8203 107.082 22.6737L107.968 25.6654L106.937 25.9126ZM116.647 23.7074C115.577 23.9639 114.727 23.6236 114.466 22.7414C114.207 21.8688 114.594 21.273 115.656 20.782L117.337 20.0196C117.104 19.2333 116.618 18.9288 115.879 19.106C115.218 19.2646 114.936 19.6505 114.965 20.2393L113.875 20.4287C113.769 19.3656 114.389 18.5392 115.624 18.243C117.024 17.9072 117.993 18.5067 118.384 19.83L118.972 21.8149C119.045 22.0642 119.156 22.1199 119.35 22.0733L119.535 22.029L119.773 22.8345C119.711 22.87 119.548 22.9192 119.403 22.9542C118.809 23.0964 118.394 22.9598 118.131 22.3863C118.027 22.9862 117.454 23.5138 116.647 23.7074ZM116.584 22.8599C117.507 22.6384 117.901 21.9278 117.66 21.1128L117.564 20.7867L116.141 21.4359C115.553 21.7002 115.391 21.9959 115.507 22.389C115.638 22.8301 116.029 22.9929 116.584 22.8599ZM122.06 22.2862C121.077 22.5217 120.496 22.2094 120.212 21.2505L119.358 18.3643L118.57 18.5531L118.323 17.7189L119.111 17.53L118.756 16.3314L119.787 16.0842L120.142 17.2828L121.513 16.954L121.76 17.7883L120.388 18.1171L121.22 20.9266C121.362 21.4061 121.609 21.5009 122.036 21.3983L122.775 21.2211L123.022 22.0554L122.06 22.2862Z" fill="white" fill-opacity="0.2"/>
<g clip-path="url(#clip2_160_228)">
<rect width="164" height="24" rx="3" transform="matrix(0.972432 -0.233189 0.283762 0.958895 68.0449 45.5083)" fill="#0F1319"/>
<rect width="16" height="16" rx="8" transform="matrix(0.972432 -0.233189 0.283762 0.958895 73.0703 48.4111)" fill="#1D2531"/>
<path d="M97.2419 54.0249L95.6301 48.5784L97.6917 48.084C98.9519 47.7818 99.8872 48.2394 100.2 49.298C100.516 50.3643 99.9598 51.1878 98.6996 51.49L97.4782 51.7829L98.082 53.8234L97.2419 54.0249ZM98.4538 50.7438C99.2162 50.561 99.5153 50.136 99.3291 49.507C99.1453 48.8856 98.6554 48.6662 97.8931 48.849L96.695 49.1363L97.2557 51.0311L98.4538 50.7438ZM103.148 52.7071C102.293 52.9123 101.612 52.64 101.403 51.9343C101.197 51.2362 101.506 50.7596 102.356 50.3668L103.7 49.7569C103.514 49.1278 103.125 48.8842 102.534 49.026C102.005 49.1529 101.78 49.4615 101.802 49.9326L100.931 50.0841C100.846 49.2336 101.342 48.5725 102.33 48.3356C103.45 48.067 104.225 48.5465 104.538 49.6052L105.008 51.1931C105.067 51.3925 105.155 51.4371 105.311 51.3998L105.459 51.3644L105.649 52.0087C105.6 52.0371 105.47 52.0765 105.353 52.1045C104.878 52.2183 104.546 52.109 104.335 51.6502C104.252 52.1302 103.794 52.5523 103.148 52.7071ZM103.098 52.0291C103.837 51.8519 104.152 51.2834 103.959 50.6314L103.882 50.3706L102.744 50.8899C102.273 51.1013 102.143 51.3379 102.236 51.6524C102.341 52.0053 102.654 52.1355 103.098 52.0291ZM106.304 51.8519L105.096 47.7708L105.85 47.5899L106.083 48.29C106.137 47.6855 106.539 47.3262 107.099 47.1919C108.025 46.9699 108.695 47.5158 108.958 48.4057L109.734 51.0292L108.91 51.227L108.206 48.8489C107.993 48.1278 107.651 47.7907 107.075 47.9287C106.492 48.0686 106.211 48.555 106.424 49.2761L107.128 51.6542L106.304 51.8519ZM112.384 50.4923C111.186 50.7796 110.174 50.1186 109.793 48.8298C109.411 47.5411 109.924 46.5144 111.099 46.2327C112.227 45.9622 113.231 46.5677 113.637 47.9408L113.698 48.1479L110.727 48.8606C111.002 49.649 111.532 49.9491 112.186 49.7924C112.676 49.6748 112.932 49.3587 112.951 48.9434L113.822 48.7919C113.829 49.6036 113.302 50.2722 112.384 50.4923ZM112.638 47.7451C112.378 47.0352 111.871 46.787 111.303 46.9231C110.72 47.0631 110.434 47.5341 110.545 48.2469L112.638 47.7451ZM115.875 49.5567C115.33 49.6873 114.887 49.5142 114.708 48.9081L113.361 44.3266L114.185 44.1289L115.518 48.6318C115.574 48.8236 115.693 48.8856 115.88 48.8408L116.214 48.7606L116.412 49.428L115.875 49.5567ZM120.391 48.5724C119.325 48.828 118.413 48.1676 118.025 46.8558C117.639 45.5517 118.063 44.5628 119.128 44.3072C119.696 44.171 120.244 44.3027 120.586 44.6724L120.012 42.7316L120.837 42.5339L122.448 47.9804L121.686 48.1632L121.481 47.5551C121.379 48.056 120.966 48.4343 120.391 48.5724ZM120.4 47.8144C121.069 47.654 121.285 47.0351 121.02 46.1376C120.752 45.2324 120.224 44.8003 119.555 44.9607C118.886 45.1212 118.617 45.7608 118.881 46.6506C119.139 47.5251 119.738 47.973 120.4 47.8144ZM123.28 47.7809L122.072 43.6999L122.897 43.5021L124.105 47.5832L123.28 47.7809ZM121.882 43.1129L121.641 42.2998L122.505 42.0927L122.746 42.9059L121.882 43.1129ZM126.753 47.0468C125.586 47.3266 124.785 46.9024 124.485 46.1118L125.329 45.8683C125.533 46.3041 125.913 46.517 126.551 46.364C127.064 46.2409 127.345 46.0091 127.239 45.6486C127.15 45.3494 126.956 45.2563 126.083 45.3179C124.79 45.3978 124.304 45.1364 124.107 44.469C123.887 43.7249 124.316 43.0633 125.389 42.8059C126.447 42.5522 127.185 43.0162 127.521 43.7323L126.687 43.9817C126.484 43.5784 126.097 43.3673 125.584 43.4905C125.047 43.6192 124.858 43.9109 124.954 44.2331C125.06 44.5936 125.352 44.6797 126.061 44.6248C127.406 44.5241 127.895 44.7683 128.092 45.4357C128.319 46.2028 127.741 46.8099 126.753 47.0468ZM130.9 46.0523C129.702 46.3396 128.682 45.6805 128.3 44.3917C127.919 43.103 128.439 42.0745 129.637 41.7872C130.641 41.5465 131.508 41.9138 131.919 42.8256L131.077 43.0768C130.835 42.568 130.368 42.3679 129.846 42.4929C129.146 42.6608 128.89 43.289 129.156 44.1865C129.422 45.0841 129.991 45.5145 130.691 45.3466C131.212 45.2216 131.507 44.8387 131.418 44.2275L132.287 44.0683C132.432 45.0359 131.911 45.8098 130.9 46.0523ZM134.716 45.1371C133.876 45.3386 133.185 44.8882 132.896 43.914L132.12 41.2904L132.945 41.0927L133.66 43.5091C133.88 44.2532 134.234 44.5215 134.763 44.3947C135.362 44.251 135.602 43.7663 135.396 43.0682L134.687 40.6748L135.512 40.4771L136.72 44.5581L135.949 44.7428L135.744 44.0773C135.674 44.6282 135.315 44.9934 134.716 45.1371ZM139.269 44.0453C138.102 44.3251 137.302 43.9009 137.001 43.1103L137.846 42.8668C138.05 43.3026 138.429 43.5155 139.067 43.3625C139.581 43.2394 139.862 43.0076 139.755 42.6471C139.667 42.3479 139.473 42.2548 138.599 42.3164C137.307 42.3963 136.821 42.1348 136.624 41.4675C136.403 40.7234 136.833 40.0618 137.906 39.8044C138.964 39.5507 139.701 40.0147 140.038 40.7308L139.204 40.9802C139.001 40.5769 138.614 40.3658 138.1 40.489C137.564 40.6177 137.375 40.9094 137.47 41.2316C137.577 41.5921 137.869 41.6782 138.578 41.6233C139.923 41.5226 140.411 41.7668 140.609 42.4342C140.836 43.2013 140.257 43.8084 139.269 44.0453ZM143.307 43.077C142.141 43.3568 141.34 42.9326 141.04 42.142L141.884 41.8984C142.088 42.3343 142.467 42.5472 143.105 42.3942C143.619 42.2711 143.9 42.0393 143.793 41.6788C143.705 41.3796 143.511 41.2865 142.637 41.348C141.345 41.428 140.859 41.1665 140.662 40.4991C140.441 39.755 140.871 39.0935 141.944 38.836C143.002 38.5823 143.739 39.0464 144.076 39.7625L143.242 40.0119C143.039 39.6086 142.652 39.3975 142.138 39.5206C141.602 39.6494 141.413 39.9411 141.508 40.2632C141.615 40.6238 141.907 40.7098 142.616 40.6549C143.961 40.5543 144.449 40.7985 144.647 41.4659C144.874 42.233 144.295 42.84 143.307 43.077ZM145.609 42.4265L144.401 38.3454L145.226 38.1477L146.434 42.2287L145.609 42.4265ZM144.211 37.7585L143.97 36.9453L144.834 36.7383L145.074 37.5514L144.211 37.7585ZM149.19 41.6662C148 41.9516 146.975 41.302 146.591 40.0056C146.208 38.7092 146.738 37.6865 147.928 37.401C149.111 37.1175 150.136 37.7671 150.52 39.0635C150.903 40.3599 150.373 41.3827 149.19 41.6662ZM148.982 40.9605C149.682 40.7926 149.93 40.1663 149.664 39.2687C149.398 38.3712 148.837 37.9389 148.137 38.1068C147.437 38.2747 147.181 38.9029 147.447 39.8004C147.712 40.6979 148.281 41.1284 148.982 40.9605ZM151.846 40.9307L150.639 36.8497L151.393 36.6687L151.626 37.3689C151.68 36.7643 152.082 36.405 152.642 36.2707C153.568 36.0487 154.237 36.5946 154.501 37.4845L155.277 40.108L154.453 40.3058L153.749 37.9277C153.535 37.2066 153.194 36.8695 152.618 37.0075C152.035 37.1475 151.754 37.6338 151.967 38.3549L152.671 40.733L151.846 40.9307ZM157.826 39.5954C156.659 39.8752 155.859 39.451 155.558 38.6604L156.403 38.4169C156.607 38.8527 156.986 39.0656 157.624 38.9126C158.138 38.7895 158.419 38.5577 158.312 38.1972C158.224 37.898 158.029 37.8049 157.156 37.8665C155.863 37.9464 155.378 37.6849 155.18 37.0176C154.96 36.2735 155.389 35.6119 156.463 35.3545C157.521 35.1008 158.258 35.5648 158.595 36.2809L157.761 36.5303C157.558 36.127 157.171 35.9159 156.657 36.0391C156.12 36.1678 155.932 36.4595 156.027 36.7817C156.134 37.1422 156.426 37.2283 157.134 37.1734C158.479 37.0727 158.968 37.3169 159.166 37.9843C159.393 38.7514 158.814 39.3585 157.826 39.5954Z" fill="white" fill-opacity="0.2"/>
</g>
<g clip-path="url(#clip3_160_228)">
<rect width="164" height="24" rx="3" transform="matrix(0.972432 -0.233189 0.283762 0.958895 75.9902 72.3574)" fill="#0F1319"/>
<rect width="16" height="16" rx="8" transform="matrix(0.972432 -0.233189 0.283762 0.958895 81.0156 75.2603)" fill="#1D2531"/>
<path d="M106.16 80.6408L103.078 75.5469L103.98 75.3305L106.327 79.3766L106.127 74.8156L106.975 74.6123L109.33 78.6565L109.122 74.0974L110.025 73.881L110.174 79.6782L109.186 79.9151L106.983 76.1877L107.132 80.4076L106.16 80.6408ZM113.553 78.9665C112.363 79.2519 111.337 78.6023 110.954 77.3059C110.57 76.0095 111.1 74.9868 112.291 74.7013C113.473 74.4178 114.499 75.0674 114.882 76.3638C115.266 77.6602 114.735 78.6829 113.553 78.9665ZM113.344 78.2607C114.044 78.0929 114.292 77.4665 114.026 76.569C113.761 75.6715 113.2 75.2392 112.5 75.4071C111.799 75.575 111.544 76.2032 111.809 77.1007C112.075 77.9982 112.644 78.4286 113.344 78.2607ZM116.209 78.231L115.001 74.1499L115.756 73.969L116.008 74.7382C116.005 74.1639 116.254 73.8496 116.767 73.7265L117.164 73.6313L117.38 74.3601L116.983 74.4552C116.353 74.6063 116.13 74.9801 116.321 75.6245L117.034 78.0333L116.209 78.231ZM118.94 77.576L117.328 72.1295L118.153 71.9318L119.154 75.3147L120.416 72.8514L121.459 72.6014L120.349 74.7078L122.729 76.6675L121.78 76.8951L119.947 75.3465L119.442 76.289L119.765 77.3783L118.94 77.576ZM124.73 76.2862C123.563 76.5661 122.763 76.1418 122.462 75.3513L123.306 75.1077C123.51 75.5435 123.89 75.7565 124.528 75.6035C125.041 75.4804 125.323 75.2486 125.216 74.8881C125.127 74.5889 124.933 74.4958 124.06 74.5573C122.767 74.6373 122.282 74.3758 122.084 73.7084C121.864 72.9643 122.293 72.3028 123.367 72.0453C124.425 71.7916 125.162 72.2556 125.499 72.9718L124.664 73.2211C124.462 72.8179 124.074 72.6068 123.561 72.7299C123.024 72.8586 122.836 73.1503 122.931 73.4725C123.038 73.8331 123.33 73.9191 124.038 73.8642C125.383 73.7635 125.872 74.0078 126.069 74.6752C126.296 75.4423 125.718 76.0493 124.73 76.2862ZM127.031 75.6358L125.42 70.1892L126.244 69.9915L126.823 71.9476C126.903 71.4275 127.29 71.1045 127.835 70.9739C128.737 70.7575 129.416 71.2767 129.686 72.1895L130.462 74.8131L129.638 75.0108L128.925 72.6021C128.709 71.8733 128.348 71.582 127.819 71.7088C127.212 71.8544 126.937 72.3312 127.148 73.0446L127.856 75.438L127.031 75.6358ZM133.12 74.2743C131.93 74.5597 130.904 73.9101 130.521 72.6137C130.137 71.3173 130.668 70.2946 131.858 70.0091C133.04 69.7256 134.066 70.3752 134.449 71.6716C134.833 72.968 134.303 73.9907 133.12 74.2743ZM132.911 73.5685C133.611 73.4007 133.859 72.7743 133.594 71.8768C133.328 70.9793 132.767 70.547 132.067 70.7149C131.367 70.8828 131.111 71.511 131.376 72.4085C131.642 73.306 132.211 73.7364 132.911 73.5685ZM136.117 74.6895L134.568 69.4577L135.346 69.2712L135.546 69.8888C135.648 69.3631 136.035 69.0075 136.587 68.8751C137.801 68.584 138.651 69.4316 138.992 70.5823C139.332 71.733 139.055 72.8511 137.849 73.1402C137.313 73.2689 136.773 73.1354 136.437 72.7887L136.941 74.4917L136.117 74.6895ZM137.493 72.4699C138.154 72.3114 138.402 71.685 138.136 70.7875C137.871 69.89 137.309 69.4577 136.648 69.6163C135.987 69.7748 135.718 70.357 135.997 71.3005C136.276 72.2441 136.824 72.6304 137.493 72.4699ZM141.976 72.1506C140.809 72.4305 140.009 72.0062 139.708 71.2157L140.553 70.9721C140.756 71.4079 141.136 71.6209 141.774 71.4679C142.287 71.3448 142.569 71.113 142.462 70.7525C142.374 70.4533 142.179 70.3602 141.306 70.4217C140.013 70.5017 139.528 70.2402 139.33 69.5728C139.11 68.8287 139.539 68.1672 140.613 67.9097C141.671 67.656 142.408 68.12 142.745 68.8362L141.91 69.0855C141.708 68.6823 141.32 68.4712 140.807 68.5943C140.27 68.723 140.082 69.0147 140.177 69.3369C140.284 69.6975 140.576 69.7835 141.284 69.7286C142.629 69.6279 143.118 69.8722 143.316 70.5396C143.543 71.3067 142.964 71.9137 141.976 72.1506Z" fill="white" fill-opacity="0.2"/>
</g>
<g clip-path="url(#clip4_160_228)">
<rect width="164" height="24" rx="3" transform="matrix(0.972432 -0.233189 0.283762 0.958895 83.9355 99.2065)" fill="#0F1319"/>
<rect width="16" height="16" rx="8" transform="matrix(0.972432 -0.233189 0.283762 0.958895 88.9609 102.109)" fill="#1D2531"/>
<path d="M113.132 107.723L111.521 102.277L112.587 102.021L116.453 105.851L115.138 101.409L115.978 101.208L117.59 106.654L116.485 106.919L112.688 103.18L113.973 107.522L113.132 107.723ZM120.427 106.073C119.229 106.36 118.217 105.699 117.835 104.41C117.454 103.121 117.967 102.095 119.141 101.813C120.269 101.542 121.273 102.148 121.68 103.521L121.741 103.728L118.769 104.441C119.044 105.229 119.575 105.529 120.228 105.373C120.718 105.255 120.975 104.939 120.993 104.524L121.865 104.372C121.872 105.184 121.345 105.852 120.427 106.073ZM120.68 103.325C120.42 102.615 119.914 102.367 119.346 102.503C118.762 102.643 118.477 103.114 118.588 103.827L120.68 103.325ZM124.404 105.02C123.618 105.209 123.153 104.959 122.926 104.192L122.243 101.883L121.612 102.034L121.415 101.366L122.045 101.215L121.761 100.256L122.586 100.059L122.87 101.017L123.967 100.754L124.164 101.422L123.067 101.685L123.732 103.933C123.846 104.316 124.043 104.392 124.386 104.31L124.977 104.168L125.174 104.836L124.404 105.02ZM126.715 104.466L124.248 100.687L125.111 100.48L126.942 103.459L126.908 100.049L127.694 99.8607L129.548 102.834L129.491 99.4297L130.362 99.2208L130.302 103.606L129.376 103.828L127.642 101.122L127.641 104.244L126.715 104.466ZM133.711 102.887C132.521 103.172 131.495 102.523 131.112 101.226C130.728 99.9299 131.259 98.9072 132.449 98.6218C133.631 98.3383 134.657 98.9879 135.04 100.284C135.424 101.581 134.894 102.603 133.711 102.887ZM133.502 102.181C134.202 102.013 134.45 101.387 134.185 100.489C133.919 99.592 133.358 99.1597 132.658 99.3276C131.958 99.4955 131.702 100.124 131.967 101.021C132.233 101.919 132.802 102.349 133.502 102.181ZM136.367 102.151L135.159 98.0704L135.914 97.8895L136.167 98.6587C136.163 98.0844 136.412 97.7701 136.925 97.647L137.322 97.5518L137.538 98.2806L137.141 98.3757C136.511 98.5268 136.288 98.9006 136.479 99.545L137.192 101.954L136.367 102.151ZM139.098 101.497L137.487 96.05L138.311 95.8522L139.312 99.2352L140.575 96.7719L141.617 96.5219L140.507 98.6282L142.887 100.588L141.938 100.816L140.105 99.267L139.601 100.209L139.923 101.299L139.098 101.497ZM143.478 100.446L142.271 96.3652L143.095 96.1674L144.303 100.248L143.478 100.446ZM142.08 95.7782L141.84 94.9651L142.703 94.758L142.944 95.5711L142.08 95.7782ZM145.207 100.032L143.999 95.9507L144.754 95.7697L144.986 96.4699C145.04 95.8653 145.442 95.506 146.002 95.3717C146.928 95.1497 147.598 95.6956 147.861 96.5855L148.637 99.209L147.813 99.4068L147.109 97.0287C146.896 96.3076 146.554 95.9705 145.979 96.1085C145.395 96.2485 145.114 96.7348 145.328 97.4559L146.031 99.834L145.207 100.032ZM151.597 99.8303C150.609 100.067 149.825 99.7541 149.445 99.0894L150.285 98.8305C150.496 99.1496 150.806 99.297 151.397 99.1552C152.082 98.991 152.373 98.6253 152.199 98.0347L152.024 97.444C151.944 97.9067 151.557 98.2871 151.02 98.4159C149.978 98.6658 149 98.0376 148.653 96.8639C148.308 95.6979 148.796 94.7017 149.823 94.4555C150.407 94.3156 150.973 94.4837 151.301 94.8897L151.111 94.2453L151.912 94.0532L153.024 97.812C153.322 98.817 152.756 99.5523 151.597 99.8303ZM150.948 97.6937C151.602 97.537 151.876 96.9454 151.646 96.138C151.417 95.3383 150.844 94.95 150.183 95.1086C149.514 95.269 149.273 95.8609 149.506 96.651C149.742 97.4488 150.295 97.8505 150.948 97.6937ZM157.616 97.1545C156.418 97.4418 155.406 96.7808 155.025 95.492C154.643 94.2033 155.156 93.1766 156.331 92.8949C157.459 92.6244 158.463 93.2299 158.869 94.603L158.93 94.8101L155.959 95.5228C156.234 96.3112 156.764 96.6113 157.417 96.4546C157.908 96.337 158.164 96.0209 158.183 95.6056L159.054 95.4541C159.061 96.2658 158.534 96.9344 157.616 97.1545ZM157.87 94.4073C157.61 93.6974 157.103 93.4492 156.535 93.5853C155.952 93.7253 155.666 94.1963 155.777 94.9091L157.87 94.4073ZM161.126 96.2142L158.409 92.4951L159.288 92.2843L161.379 95.2664L161.544 91.7433L162.431 91.5306L162.13 95.9736L161.126 96.2142ZM165.768 95.1997C164.57 95.4869 163.558 94.8259 163.177 93.5372C162.795 92.2484 163.308 91.2218 164.483 90.9401C165.611 90.6696 166.615 91.275 167.021 92.6482L167.082 92.8553L164.111 93.5679C164.386 94.3564 164.916 94.6564 165.569 94.4997C166.06 94.3822 166.316 94.066 166.335 93.6508L167.206 93.4993C167.213 94.3109 166.686 94.9795 165.768 95.1997ZM166.022 92.4524C165.762 91.7425 165.255 91.4943 164.687 91.6305C164.104 91.7704 163.818 92.2414 163.929 92.9542L166.022 92.4524ZM168.341 94.4842L167.133 90.4031L167.888 90.2222L168.12 90.9223C168.174 90.3177 168.576 89.9585 169.136 89.8242C170.062 89.6022 170.732 90.1481 170.995 91.0379L171.772 93.6615L170.947 93.8592L170.243 91.4812C170.03 90.7601 169.689 90.4229 169.113 90.561C168.529 90.7009 168.248 91.1873 168.462 91.9084L169.166 94.2864L168.341 94.4842ZM174.133 93.0952C173.347 93.2836 172.882 93.0338 172.655 92.2666L171.972 89.9576L171.341 90.1087L171.144 89.4413L171.774 89.2902L171.49 88.3313L172.315 88.1336L172.599 89.0925L173.696 88.8295L173.893 89.4968L172.796 89.7599L173.461 92.0075C173.575 92.3911 173.772 92.467 174.114 92.3849L174.706 92.2431L174.903 92.9105L174.133 93.0952ZM177.135 92.4738C175.969 92.7536 175.168 92.3294 174.868 91.5389L175.712 91.2953C175.916 91.7311 176.296 91.9441 176.933 91.7911C177.447 91.668 177.728 91.4362 177.622 91.0756C177.533 90.7765 177.339 90.6834 176.466 90.7449C175.173 90.8248 174.687 90.5634 174.49 89.896C174.269 89.1519 174.699 88.4903 175.772 88.2329C176.83 87.9792 177.567 88.4432 177.904 89.1593L177.07 89.4087C176.867 89.0055 176.48 88.7944 175.966 88.9175C175.43 89.0462 175.241 89.3379 175.336 89.6601C175.443 90.0206 175.735 90.1067 176.444 90.0518C177.789 89.9511 178.277 90.1954 178.475 90.8628C178.702 91.6299 178.123 92.2369 177.135 92.4738Z" fill="white" fill-opacity="0.2"/>
</g>
<g clip-path="url(#clip5_160_228)">
<rect width="164" height="24" rx="3" transform="matrix(0.972432 -0.233189 0.283762 0.958895 91.8809 126.056)" fill="#0F1319"/>
<rect width="16" height="16" rx="8" transform="matrix(0.972432 -0.233189 0.283762 0.958895 96.9062 128.958)" fill="#1D2531"/>
<path d="M121.078 134.572L119.466 129.126L120.306 128.924L121.918 134.371L121.078 134.572ZM122.911 134.133L121.703 130.052L122.458 129.871L122.69 130.571C122.744 129.966 123.146 129.607 123.706 129.473C124.632 129.251 125.302 129.797 125.565 130.687L126.341 133.31L125.517 133.508L124.813 131.13C124.6 130.409 124.258 130.072 123.683 130.21C123.099 130.349 122.818 130.836 123.032 131.557L123.735 133.935L122.911 134.133ZM128.703 132.744C127.917 132.932 127.452 132.682 127.225 131.915L126.541 129.606L125.911 129.757L125.714 129.09L126.344 128.939L126.06 127.98L126.885 127.782L127.168 128.741L128.265 128.478L128.463 129.145L127.366 129.408L128.031 131.656C128.145 132.04 128.342 132.116 128.684 132.033L129.275 131.892L129.473 132.559L128.703 132.744ZM131.806 132.098C130.608 132.385 129.596 131.724 129.215 130.436C128.833 129.147 129.346 128.12 130.521 127.839C131.649 127.568 132.653 128.174 133.059 129.547L133.12 129.754L130.149 130.466C130.424 131.255 130.954 131.555 131.608 131.398C132.098 131.281 132.354 130.965 132.373 130.549L133.244 130.398C133.251 131.209 132.724 131.878 131.806 132.098ZM132.06 129.351C131.8 128.641 131.293 128.393 130.725 128.529C130.142 128.669 129.856 129.14 129.967 129.853L132.06 129.351ZM134.379 131.383L133.171 127.302L133.926 127.121L134.178 127.89C134.175 127.316 134.424 127.001 134.937 126.878L135.334 126.783L135.55 127.512L135.153 127.607C134.523 127.758 134.3 128.132 134.491 128.776L135.204 131.185L134.379 131.383ZM138.305 130.54C137.449 130.745 136.768 130.473 136.56 129.767C136.353 129.069 136.662 128.592 137.512 128.2L138.856 127.59C138.67 126.961 138.281 126.717 137.69 126.859C137.161 126.986 136.936 127.294 136.959 127.765L136.087 127.917C136.002 127.066 136.498 126.405 137.486 126.168C138.606 125.9 139.381 126.379 139.695 127.438L140.164 129.026C140.223 129.225 140.312 129.27 140.467 129.233L140.615 129.197L140.806 129.841C140.756 129.87 140.626 129.909 140.509 129.937C140.035 130.051 139.702 129.942 139.492 129.483C139.409 129.963 138.95 130.385 138.305 130.54ZM138.254 129.862C138.993 129.685 139.308 129.116 139.115 128.464L139.038 128.203L137.9 128.723C137.43 128.934 137.3 129.171 137.393 129.485C137.497 129.838 137.811 129.968 138.254 129.862ZM143.176 129.372C141.978 129.659 140.958 129 140.577 127.711C140.195 126.422 140.716 125.394 141.914 125.107C142.917 124.866 143.784 125.233 144.196 126.145L143.354 126.396C143.111 125.887 142.644 125.687 142.123 125.812C141.423 125.98 141.167 126.608 141.433 127.506C141.698 128.403 142.267 128.834 142.967 128.666C143.488 128.541 143.783 128.158 143.694 127.547L144.564 127.388C144.708 128.355 144.187 129.129 143.176 129.372ZM147.047 128.345C146.261 128.533 145.796 128.283 145.569 127.516L144.885 125.207L144.255 125.358L144.058 124.691L144.688 124.54L144.404 123.581L145.229 123.383L145.512 124.342L146.609 124.079L146.807 124.747L145.71 125.01L146.375 127.257C146.489 127.641 146.686 127.717 147.028 127.635L147.619 127.493L147.817 128.16L147.047 128.345ZM148.51 127.994L147.303 123.913L148.127 123.715L149.335 127.796L148.51 127.994ZM147.112 123.326L146.872 122.513L147.735 122.306L147.976 123.119L147.112 123.326ZM152.092 127.234C150.902 127.519 149.876 126.87 149.492 125.573C149.109 124.277 149.639 123.254 150.83 122.969C152.012 122.685 153.037 123.335 153.421 124.631C153.805 125.927 153.274 126.95 152.092 127.234ZM151.883 126.528C152.583 126.36 152.831 125.734 152.565 124.836C152.3 123.939 151.739 123.506 151.038 123.674C150.338 123.842 150.083 124.47 150.348 125.368C150.614 126.265 151.183 126.696 151.883 126.528ZM154.748 126.498L153.54 122.417L154.295 122.236L154.527 122.936C154.581 122.332 154.983 121.973 155.543 121.838C156.469 121.616 157.139 122.162 157.402 123.052L158.179 125.676L157.354 125.873L156.65 123.495C156.437 122.774 156.095 122.437 155.52 122.575C154.936 122.715 154.655 123.201 154.869 123.922L155.572 126.3L154.748 126.498ZM160.727 125.163C159.561 125.443 158.76 125.018 158.46 124.228L159.304 123.984C159.508 124.42 159.887 124.633 160.525 124.48C161.039 124.357 161.32 124.125 161.213 123.765C161.125 123.466 160.931 123.372 160.058 123.434C158.765 123.514 158.279 123.252 158.082 122.585C157.861 121.841 158.291 121.179 159.364 120.922C160.422 120.668 161.159 121.132 161.496 121.848L160.662 122.098C160.459 121.694 160.072 121.483 159.558 121.607C159.022 121.735 158.833 122.027 158.928 122.349C159.035 122.71 159.327 122.796 160.036 122.741C161.381 122.64 161.869 122.884 162.067 123.552C162.294 124.319 161.715 124.926 160.727 125.163Z" fill="white" fill-opacity="0.2"/>
</g>
<g clip-path="url(#clip6_160_228)">
<rect width="164" height="24" rx="3" transform="matrix(0.972432 -0.233189 0.283762 0.958895 99.543 151.946)" fill="#0F1319"/>
<rect width="16" height="16" rx="8" transform="matrix(0.972432 -0.233189 0.283762 0.958895 104.568 154.849)" fill="#1D2531"/>
<path d="M128.74 160.462L127.128 155.016L127.968 154.814L129.58 160.261L128.74 160.462ZM130.573 160.023L129.365 155.942L130.12 155.761L130.352 156.461C130.406 155.856 130.808 155.497 131.368 155.363C132.294 155.141 132.964 155.687 133.227 156.577L134.004 159.2L133.179 159.398L132.475 157.02C132.262 156.299 131.92 155.962 131.345 156.1C130.761 156.24 130.48 156.726 130.694 157.447L131.397 159.825L130.573 160.023ZM136.365 158.634C135.579 158.822 135.114 158.572 134.887 157.805L134.203 155.496L133.573 155.647L133.376 154.98L134.006 154.829L133.722 153.87L134.547 153.672L134.831 154.631L135.927 154.368L136.125 155.036L135.028 155.299L135.693 157.546C135.807 157.93 136.004 158.006 136.346 157.924L136.938 157.782L137.135 158.449L136.365 158.634ZM139.468 157.988C138.27 158.276 137.258 157.615 136.877 156.326C136.496 155.037 137.008 154.01 138.183 153.729C139.311 153.458 140.315 154.064 140.721 155.437L140.783 155.644L137.811 156.357C138.086 157.145 138.616 157.445 139.27 157.288C139.76 157.171 140.016 156.855 140.035 156.439L140.907 156.288C140.913 157.1 140.386 157.768 139.468 157.988ZM139.722 155.241C139.462 154.531 138.955 154.283 138.387 154.419C137.804 154.559 137.518 155.03 137.629 155.743L139.722 155.241ZM142.041 157.273L140.833 153.192L141.588 153.011L141.841 153.78C141.837 153.206 142.086 152.891 142.599 152.768L142.996 152.673L143.212 153.402L142.815 153.497C142.185 153.648 141.962 154.022 142.153 154.666L142.866 157.075L142.041 157.273ZM145.967 156.43C145.111 156.635 144.431 156.363 144.222 155.657C144.015 154.959 144.324 154.482 145.174 154.09L146.518 153.48C146.332 152.851 145.944 152.607 145.352 152.749C144.823 152.876 144.598 153.184 144.621 153.655L143.749 153.807C143.664 152.957 144.16 152.295 145.148 152.058C146.268 151.79 147.043 152.269 147.357 153.328L147.827 154.916C147.886 155.115 147.974 155.16 148.129 155.123L148.277 155.087L148.468 155.732C148.418 155.76 148.288 155.799 148.171 155.827C147.697 155.941 147.364 155.832 147.154 155.373C147.071 155.853 146.612 156.275 145.967 156.43ZM145.916 155.752C146.655 155.575 146.97 155.006 146.777 154.354L146.7 154.093L145.562 154.613C145.092 154.824 144.962 155.061 145.055 155.375C145.159 155.728 145.473 155.858 145.916 155.752ZM150.838 155.262C149.64 155.549 148.62 154.89 148.239 153.601C147.858 152.312 148.378 151.284 149.576 150.997C150.58 150.756 151.446 151.123 151.858 152.035L151.016 152.286C150.774 151.777 150.306 151.577 149.785 151.702C149.085 151.87 148.829 152.498 149.095 153.396C149.36 154.294 149.929 154.724 150.629 154.556C151.151 154.431 151.445 154.048 151.356 153.437L152.226 153.278C152.37 154.245 151.85 155.019 150.838 155.262ZM154.709 154.235C153.923 154.423 153.458 154.174 153.231 153.406L152.547 151.097L151.917 151.249L151.72 150.581L152.35 150.43L152.066 149.471L152.891 149.273L153.175 150.232L154.271 149.969L154.469 150.637L153.372 150.9L154.037 153.147C154.151 153.531 154.348 153.607 154.69 153.525L155.282 153.383L155.479 154.05L154.709 154.235ZM156.172 153.884L154.965 149.803L155.789 149.605L156.997 153.686L156.172 153.884ZM154.774 149.216L154.534 148.403L155.397 148.196L155.638 149.009L154.774 149.216ZM159.754 153.124C158.564 153.409 157.538 152.76 157.155 151.463C156.771 150.167 157.301 149.144 158.492 148.859C159.674 148.575 160.7 149.225 161.083 150.521C161.467 151.818 160.936 152.84 159.754 153.124ZM159.545 152.418C160.245 152.25 160.493 151.624 160.227 150.726C159.962 149.829 159.401 149.397 158.701 149.564C158 149.732 157.745 150.36 158.01 151.258C158.276 152.156 158.845 152.586 159.545 152.418ZM162.41 152.388L161.202 148.307L161.957 148.126L162.189 148.826C162.243 148.222 162.645 147.863 163.205 147.728C164.131 147.506 164.801 148.052 165.064 148.942L165.841 151.566L165.016 151.763L164.312 149.385C164.099 148.664 163.757 148.327 163.182 148.465C162.598 148.605 162.317 149.091 162.531 149.813L163.234 152.191L162.41 152.388ZM168.39 151.053C167.223 151.333 166.422 150.909 166.122 150.118L166.966 149.874C167.17 150.31 167.55 150.523 168.188 150.37C168.701 150.247 168.982 150.015 168.876 149.655C168.787 149.356 168.593 149.263 167.72 149.324C166.427 149.404 165.941 149.143 165.744 148.475C165.524 147.731 165.953 147.07 167.026 146.812C168.084 146.558 168.821 147.022 169.158 147.739L168.324 147.988C168.121 147.585 167.734 147.374 167.22 147.497C166.684 147.625 166.495 147.917 166.59 148.239C166.697 148.6 166.989 148.686 167.698 148.631C169.043 148.53 169.532 148.775 169.729 149.442C169.956 150.209 169.378 150.816 168.39 151.053Z" fill="white" fill-opacity="0.2"/>
</g>
<g clip-path="url(#clip7_160_228)">
<rect width="164" height="24" rx="3" transform="matrix(0.972432 -0.233189 0.283762 0.958895 107.203 177.836)" fill="#0F1319"/>
</g>
<g clip-path="url(#clip8_160_228)">
<rect width="164" height="24" rx="3" transform="matrix(0.972432 -0.233189 0.283762 0.958895 115.15 204.685)" fill="#0F1319"/>
</g>
</g>
<rect x="0.628097" y="0.362853" width="187" height="234.357" rx="3.5" transform="matrix(0.972432 -0.233189 0.283762 0.958895 48.971 23.7371)" stroke="#1E252F"/>
</g>
<rect x="1.09766" y="1.08203" width="291" height="171" rx="7.5" stroke="#1E252F"/>
<defs>
<clipPath id="clip0_160_228">
<rect x="0.597656" y="0.582031" width="292" height="172" rx="8" fill="white"/>
</clipPath>
<clipPath id="clip1_160_228">
<rect width="188" height="235.357" rx="4" transform="matrix(0.972432 -0.233189 0.283762 0.958895 49.0566 23.5757)" fill="white"/>
</clipPath>
<clipPath id="clip2_160_228">
<rect width="164" height="24" rx="3" transform="matrix(0.972432 -0.233189 0.283762 0.958895 68.0449 45.5083)" fill="white"/>
</clipPath>
<clipPath id="clip3_160_228">
<rect width="164" height="24" rx="3" transform="matrix(0.972432 -0.233189 0.283762 0.958895 75.9902 72.3574)" fill="white"/>
</clipPath>
<clipPath id="clip4_160_228">
<rect width="164" height="24" rx="3" transform="matrix(0.972432 -0.233189 0.283762 0.958895 83.9355 99.2065)" fill="white"/>
</clipPath>
<clipPath id="clip5_160_228">
<rect width="164" height="24" rx="3" transform="matrix(0.972432 -0.233189 0.283762 0.958895 91.8809 126.056)" fill="white"/>
</clipPath>
<clipPath id="clip6_160_228">
<rect width="164" height="24" rx="3" transform="matrix(0.972432 -0.233189 0.283762 0.958895 99.543 151.946)" fill="white"/>
</clipPath>
<clipPath id="clip7_160_228">
<rect width="164" height="24" rx="3" transform="matrix(0.972432 -0.233189 0.283762 0.958895 107.203 177.836)" fill="white"/>
</clipPath>
<clipPath id="clip8_160_228">
<rect width="164" height="24" rx="3" transform="matrix(0.972432 -0.233189 0.283762 0.958895 115.15 204.685)" fill="white"/>
</clipPath>
</defs>
</svg>
