<svg width="293" height="181" viewBox="0 0 293 181" fill="none" xmlns="http://www.w3.org/2000/svg">
<rect x="1.09766" y="9.08203" width="291" height="171" rx="7.5" fill="#091224"/>
<rect x="1.09766" y="9.08203" width="291" height="171" rx="7.5" stroke="#1E252F"/>
<rect x="53.0977" y="1.08203" width="187" height="162" rx="1.5" fill="#01060C"/>
<rect x="53.0977" y="1.08203" width="187" height="162" rx="1.5" stroke="#1E252F"/>
<rect width="15" height="15" transform="translate(68.5977 14.582)" fill="#1D2531"/>
<g clip-path="url(#clip0_98_1154)">
<path d="M74.8477 24.5818C74.8477 25.2722 74.288 25.8318 73.5977 25.8318C72.9073 25.8318 72.3477 25.2722 72.3477 24.5818C72.3477 23.8914 72.9073 23.3318 73.5977 23.3318C74.288 23.3318 74.8477 23.8914 74.8477 24.5818ZM74.8477 24.5818V19.5129C74.8477 19.3115 74.9917 19.139 75.1898 19.1029L79.1854 18.3765C79.3133 18.3532 79.431 18.4515 79.431 18.5814V23.7485M79.431 23.7485C79.431 24.4389 78.8714 24.9985 78.181 24.9985C77.4906 24.9985 76.931 24.4389 76.931 23.7485C76.931 23.0581 77.4906 22.4985 78.181 22.4985C78.8714 22.4985 79.431 23.0581 79.431 23.7485Z" stroke="#01060C" stroke-width="1.5" stroke-linecap="round" stroke-linejoin="round"/>
</g>
<rect x="92.5977" y="14.582" width="132" height="6" rx="2" fill="#1D2531"/>
<rect x="92.5977" y="26.582" width="132" height="6" rx="2" fill="#1D2531"/>
<rect width="15" height="15" transform="translate(68.5977 46.582)" fill="#1D2531"/>
<g clip-path="url(#clip1_98_1154)">
<path d="M72.119 51.9957C72.1729 51.6203 72.4811 51.3385 72.8594 51.3115C73.6666 51.2539 75.0718 51.1655 76.0983 51.1655C77.1248 51.1655 78.53 51.2539 79.3372 51.3115C79.7155 51.3385 80.0237 51.6203 80.0776 51.9957C80.1604 52.5727 80.265 53.4304 80.265 54.0822C80.265 54.7342 80.1604 55.5918 80.0776 56.1687C80.0237 56.5442 79.7155 56.826 79.3372 56.853C78.53 56.9106 77.1248 56.9989 76.0983 56.9989C75.0718 56.9989 73.6667 56.9106 72.8594 56.853C72.4811 56.826 72.1729 56.5442 72.119 56.1687C72.0362 55.5918 71.9316 54.7342 71.9316 54.0822C71.9316 53.4304 72.0362 52.5727 72.119 51.9957Z" stroke="black" stroke-linecap="round" stroke-linejoin="round"/>
<path d="M76.9645 54.082L75.2324 55.082V53.082L76.9645 54.082Z" stroke="black" stroke-width="1.5" stroke-linecap="round" stroke-linejoin="round"/>
</g>
<rect x="92.5977" y="46.582" width="132" height="6" rx="2" fill="#1D2531"/>
<rect x="92.5977" y="58.582" width="132" height="6" rx="2" fill="#1D2531"/>
<rect width="15" height="15" transform="translate(68.5977 78.582)" fill="#1D2531"/>
<g clip-path="url(#clip2_98_1154)">
<path d="M74.8477 88.5818C74.8477 89.2722 74.288 89.8318 73.5977 89.8318C72.9073 89.8318 72.3477 89.2722 72.3477 88.5818C72.3477 87.8914 72.9073 87.3318 73.5977 87.3318C74.288 87.3318 74.8477 87.8914 74.8477 88.5818ZM74.8477 88.5818V83.5129C74.8477 83.3115 74.9917 83.139 75.1898 83.1029L79.1854 82.3765C79.3133 82.3532 79.431 82.4515 79.431 82.5814V87.7485M79.431 87.7485C79.431 88.4389 78.8714 88.9985 78.181 88.9985C77.4906 88.9985 76.931 88.4389 76.931 87.7485C76.931 87.0581 77.4906 86.4985 78.181 86.4985C78.8714 86.4985 79.431 87.0581 79.431 87.7485Z" stroke="#01060C" stroke-width="1.5" stroke-linecap="round" stroke-linejoin="round"/>
</g>
<rect x="92.5977" y="78.582" width="132" height="6" rx="2" fill="#1D2531"/>
<rect x="92.5977" y="90.582" width="132" height="6" rx="2" fill="#1D2531"/>
<rect x="92.5977" y="102.582" width="132" height="6" rx="2" fill="#1D2531"/>
<rect x="69.0977" y="125.082" width="155" height="24" rx="3.5" fill="#909090" fill-opacity="0.1"/>
<rect x="69.0977" y="125.082" width="155" height="24" rx="3.5" stroke="#1E252F"/>
<path d="M124.538 141.242C122.838 141.242 121.778 140.252 121.658 138.792L122.768 138.722C122.898 139.712 123.498 140.262 124.558 140.262C125.478 140.262 126.008 139.912 126.008 139.242C126.008 138.642 125.698 138.272 124.128 137.892C122.428 137.482 121.808 136.992 121.808 135.882C121.808 134.662 122.738 133.822 124.268 133.822C125.898 133.822 126.818 134.792 126.978 136.132L125.878 136.192C125.768 135.372 125.228 134.802 124.248 134.802C123.428 134.802 122.918 135.222 122.918 135.842C122.918 136.462 123.268 136.692 124.648 137.022C126.498 137.452 127.118 138.142 127.118 139.182C127.118 140.452 126.068 141.242 124.538 141.242ZM130.34 141.202C128.8 141.202 127.82 140.102 127.82 138.422C127.82 136.742 128.8 135.642 130.31 135.642C131.76 135.642 132.75 136.672 132.75 138.462V138.732H128.93C128.98 139.772 129.51 140.292 130.35 140.292C130.98 140.292 131.4 139.982 131.57 139.482L132.67 139.552C132.39 140.542 131.52 141.202 130.34 141.202ZM131.62 137.932C131.56 136.992 131.04 136.542 130.31 136.542C129.56 136.542 129.05 137.032 128.93 137.932H131.62ZM134.761 141.082C134.061 141.082 133.591 140.742 133.591 139.952L133.601 133.982H134.661V139.852C134.661 140.102 134.781 140.212 135.021 140.212H135.451V141.082H134.761ZM138.402 141.202C136.862 141.202 135.882 140.102 135.882 138.422C135.882 136.742 136.862 135.642 138.372 135.642C139.822 135.642 140.812 136.672 140.812 138.462V138.732H136.992C137.042 139.772 137.572 140.292 138.412 140.292C139.042 140.292 139.462 139.982 139.632 139.482L140.732 139.552C140.452 140.542 139.582 141.202 138.402 141.202ZM139.682 137.932C139.622 136.992 139.102 136.542 138.372 136.542C137.622 136.542 137.112 137.032 136.992 137.932H139.682ZM143.864 141.202C142.324 141.202 141.334 140.102 141.334 138.422C141.334 136.742 142.324 135.642 143.864 135.642C145.154 135.642 146.064 136.342 146.234 137.572L145.134 137.632C145.024 136.942 144.534 136.562 143.864 136.562C142.964 136.562 142.434 137.252 142.434 138.422C142.434 139.592 142.964 140.282 143.864 140.282C144.534 140.282 145.024 139.902 145.134 139.132L146.234 139.192C146.064 140.412 145.164 141.202 143.864 141.202ZM148.774 141.082C147.764 141.082 147.294 140.642 147.294 139.642V136.632H146.484V135.762H147.294V134.512H148.354V135.762H149.764V136.632H148.354V139.562C148.354 140.062 148.564 140.212 149.004 140.212H149.764V141.082H148.774ZM155.377 141.242C153.677 141.242 152.617 140.252 152.497 138.792L153.607 138.722C153.737 139.712 154.337 140.262 155.397 140.262C156.317 140.262 156.847 139.912 156.847 139.242C156.847 138.642 156.537 138.272 154.967 137.892C153.267 137.482 152.647 136.992 152.647 135.882C152.647 134.662 153.577 133.822 155.107 133.822C156.737 133.822 157.657 134.792 157.817 136.132L156.717 136.192C156.607 135.372 156.067 134.802 155.087 134.802C154.267 134.802 153.757 135.222 153.757 135.842C153.757 136.462 154.107 136.692 155.487 137.022C157.337 137.452 157.957 138.142 157.957 139.182C157.957 140.452 156.907 141.242 155.377 141.242ZM158.784 141.082V133.982H159.844V138.392L162.234 135.762H163.574L161.494 138.002L163.654 141.082H162.434L160.784 138.662L159.844 139.662V141.082H158.784ZM164.314 141.082V135.762H165.374V141.082H164.314ZM164.294 134.992V133.932H165.404V134.992H164.294ZM167.742 141.082C167.042 141.082 166.572 140.742 166.572 139.952L166.582 133.982H167.642V139.852C167.642 140.102 167.762 140.212 168.002 140.212H168.432V141.082H167.742ZM170.333 141.082C169.633 141.082 169.163 140.742 169.163 139.952L169.173 133.982H170.233V139.852C170.233 140.102 170.353 140.212 170.593 140.212H171.023V141.082H170.333Z" fill="white" fill-opacity="0.2"/>
<defs>
<clipPath id="clip0_98_1154">
<rect width="10" height="10" fill="white" transform="translate(71.0977 17.082)"/>
</clipPath>
<clipPath id="clip1_98_1154">
<rect width="10" height="10" fill="white" transform="translate(71.0977 49.082)"/>
</clipPath>
<clipPath id="clip2_98_1154">
<rect width="10" height="10" fill="white" transform="translate(71.0977 81.082)"/>
</clipPath>
</defs>
</svg>
