<svg width="293" height="173" viewBox="0 0 293 173" fill="none" xmlns="http://www.w3.org/2000/svg">
<rect x="1.09766" y="1.08203" width="291" height="171" rx="7.5" fill="#091224"/>
<rect x="1.09766" y="1.08203" width="291" height="171" rx="7.5" stroke="#1E252F"/>
<rect x="53.0977" y="26.5" width="187" height="146" rx="1.5" fill="#01060C"/>
<rect x="53.0977" y="26.5" width="187" height="146" rx="1.5" stroke="#1E252F"/>
<rect x="58.5977" y="126" width="26" height="33" rx="2" fill="#1D2531"/>
<rect x="88.5977" y="134" width="26" height="25" rx="2" fill="#1D2531"/>
<rect x="118.598" y="115" width="26" height="44" rx="2" fill="#172645"/>
<rect x="118.598" y="115" width="26" height="44" rx="2" stroke="#1E252F"/>
<rect x="148.598" y="97" width="26" height="62" rx="2" fill="#1D2531"/>
<rect x="178.598" y="84" width="26" height="75" rx="2" fill="#1D2531"/>
<rect x="208.598" y="72" width="26" height="87" rx="2" fill="#1D2531"/>
<path d="M128.375 59.0304C126.975 57.5735 125.295 56.4146 123.435 55.6234C121.576 54.8322 119.575 54.425 117.555 54.4263V63.8317C118.693 63.8317 119.82 64.0663 120.864 64.521C121.908 64.9756 122.848 65.6405 123.623 66.4742L128.375 61.7222V59.0304Z" fill="#407BFF"/>
<path d="M128.375 59.0304C126.975 57.5735 125.295 56.4146 123.435 55.6234C121.576 54.8322 119.575 54.425 117.555 54.4263V63.8317C118.693 63.8317 119.82 64.0663 120.864 64.521C121.908 64.9756 122.848 65.6405 123.623 66.4742L128.375 61.7222V59.0304Z" fill="#393F48"/>
<path d="M123.623 63.7824L128.375 59.0304C126.975 57.5735 125.295 56.4146 123.435 55.6234C121.576 54.8322 119.575 54.425 117.555 54.4263V61.1444C118.693 61.1439 119.82 61.3778 120.864 61.8317C121.908 62.2855 122.847 62.9496 123.623 63.7824Z" fill="#172645"/>
<path d="M122.728 69.1569C123.854 70.358 124.598 71.8672 124.864 73.4923C124.548 75.4404 123.548 77.2125 122.045 78.4913C120.542 79.7702 118.632 80.4724 116.659 80.4724C114.685 80.4724 112.776 79.7702 111.273 78.4913C109.769 77.2125 108.77 75.4404 108.454 73.4923C108.77 71.5441 109.77 69.7721 111.273 68.4929C112.776 67.2138 114.685 66.5109 116.659 66.5099V57.1045C112.67 57.1045 108.845 58.689 106.024 61.5095C103.204 64.33 101.619 68.1554 101.619 72.1442C101.619 72.5921 101.646 73.0399 101.682 73.4878C101.646 73.9357 101.619 74.3836 101.619 74.8314C101.687 78.7747 103.301 82.5334 106.114 85.298C108.927 88.0625 112.713 89.6116 116.657 89.6116C120.6 89.6116 124.386 88.0625 127.199 85.298C130.012 82.5334 131.626 78.7747 131.694 74.8314C131.694 74.3836 131.694 73.9357 131.631 73.4878C131.672 73.0399 131.694 72.5921 131.694 72.1442C131.7 68.2499 130.188 64.5065 127.48 61.7087L122.728 66.4696V69.1569Z" fill="#407BFF"/>
<path d="M122.728 69.1569C123.854 70.358 124.598 71.8672 124.864 73.4923C124.548 75.4404 123.548 77.2125 122.045 78.4913C120.542 79.7702 118.632 80.4724 116.659 80.4724C114.685 80.4724 112.776 79.7702 111.273 78.4913C109.769 77.2125 108.77 75.4404 108.454 73.4923C108.77 71.5441 109.77 69.7721 111.273 68.4929C112.776 67.2138 114.685 66.5109 116.659 66.5099V57.1045C112.67 57.1045 108.845 58.689 106.024 61.5095C103.204 64.33 101.619 68.1554 101.619 72.1442C101.619 72.5921 101.646 73.0399 101.682 73.4878C101.646 73.9357 101.619 74.3836 101.619 74.8314C101.687 78.7747 103.301 82.5334 106.114 85.298C108.927 88.0625 112.713 89.6116 116.657 89.6116C120.6 89.6116 124.386 88.0625 127.199 85.298C130.012 82.5334 131.626 78.7747 131.694 74.8314C131.694 74.3836 131.694 73.9357 131.631 73.4878C131.672 73.0399 131.694 72.5921 131.694 72.1442C131.7 68.2499 130.188 64.5065 127.48 61.7087L122.728 66.4696V69.1569Z" fill="#393F48"/>
<path d="M127.48 61.718L122.728 66.47C124.033 67.8681 124.816 69.6732 124.946 71.5812C125.075 73.4892 124.543 75.3835 123.44 76.9452C122.336 78.5068 120.727 79.6404 118.886 80.1549C117.044 80.6695 115.081 80.5336 113.327 79.7701C111.574 79.0067 110.137 77.6623 109.259 75.9634C108.381 74.2645 108.115 72.315 108.507 70.443C108.898 68.5711 109.922 66.8912 111.407 65.6862C112.892 64.4812 114.747 63.8248 116.66 63.8275V57.1094C113.189 57.1063 109.825 58.3028 107.135 60.4961C104.446 62.6894 102.597 65.7449 101.902 69.1449C101.208 72.545 101.709 76.0807 103.322 79.1533C104.936 82.2259 107.561 84.6466 110.754 86.0053C113.948 87.364 117.512 87.5773 120.845 86.6091C124.177 85.6409 127.073 83.5506 129.041 80.6923C131.009 77.834 131.929 74.3833 131.644 70.9247C131.36 67.466 129.889 64.2119 127.48 61.7136V61.718Z" fill="#172645"/>
<path d="M113.202 74.357V75.1855H109.883V74.5316L111.576 72.9327C111.721 72.8045 111.844 72.6532 111.939 72.4848C112 72.3719 112.032 72.2458 112.033 72.1176C112.038 72.0409 112.024 71.9643 111.993 71.8942C111.961 71.824 111.914 71.7624 111.854 71.7145C111.7 71.6104 111.515 71.5615 111.33 71.5756C111.151 71.5736 110.974 71.6103 110.81 71.6831C110.654 71.7586 110.52 71.8727 110.421 72.0146L109.682 71.5353C109.86 71.2766 110.104 71.0708 110.389 70.9397C110.713 70.7884 111.067 70.7134 111.424 70.7202C111.719 70.714 112.011 70.7689 112.284 70.8814C112.512 70.9742 112.709 71.1295 112.853 71.3293C112.99 71.5311 113.06 71.7707 113.054 72.0146C113.055 72.2467 113.005 72.4761 112.906 72.6864C112.756 72.9567 112.559 73.1978 112.324 73.3985L111.312 74.3525L113.202 74.357Z" fill="#575E68"/>
<path d="M114.519 74.9795C114.224 74.7892 113.992 74.5166 113.851 74.1957C113.529 73.4156 113.529 72.5394 113.851 71.7593C113.992 71.4383 114.224 71.1658 114.519 70.9755C114.81 70.7947 115.147 70.7014 115.49 70.7068C115.833 70.7014 116.171 70.7947 116.462 70.9755C116.754 71.1687 116.985 71.4404 117.13 71.7593C117.452 72.5394 117.452 73.4156 117.13 74.1957C116.987 74.5154 116.755 74.7874 116.462 74.9795C116.171 75.1603 115.833 75.2536 115.49 75.2482C115.147 75.2536 114.81 75.1603 114.519 74.9795ZM116.117 74.0434C116.268 73.7082 116.346 73.3449 116.346 72.9775C116.346 72.61 116.268 72.2468 116.117 71.9115C116.05 71.8061 115.958 71.7193 115.848 71.6592C115.738 71.5991 115.615 71.5676 115.49 71.5676C115.365 71.5676 115.242 71.5991 115.133 71.6592C115.023 71.7193 114.931 71.8061 114.863 71.9115C114.713 72.2468 114.635 72.61 114.635 72.9775C114.635 73.3449 114.713 73.7082 114.863 74.0434C114.931 74.1489 115.023 74.2357 115.133 74.2958C115.242 74.3559 115.365 74.3874 115.49 74.3874C115.615 74.3874 115.738 74.3559 115.848 74.2958C115.958 74.2357 116.05 74.1489 116.117 74.0434Z" fill="#575E68"/>
<path d="M118.092 72.8384C117.895 72.5867 117.787 72.276 117.787 71.9561C117.787 71.6361 117.895 71.3254 118.092 71.0738C118.192 70.9659 118.315 70.8808 118.451 70.8244C118.587 70.768 118.733 70.7415 118.88 70.7468C119.027 70.7413 119.173 70.7677 119.308 70.8241C119.444 70.8806 119.565 70.9657 119.664 71.0738C119.859 71.3267 119.964 71.6369 119.964 71.9561C119.964 72.2752 119.859 72.5855 119.664 72.8384C119.565 72.9464 119.444 73.0316 119.308 73.088C119.173 73.1445 119.027 73.1709 118.88 73.1653C118.733 73.1706 118.587 73.1442 118.451 73.0877C118.315 73.0313 118.192 72.9463 118.092 72.8384ZM119.216 72.4756C119.296 72.314 119.337 72.1362 119.337 71.9561C119.337 71.7759 119.296 71.5982 119.216 71.4365C119.179 71.382 119.13 71.3374 119.071 71.3066C119.013 71.2757 118.948 71.2596 118.883 71.2596C118.817 71.2596 118.752 71.2757 118.694 71.3066C118.636 71.3374 118.586 71.382 118.549 71.4365C118.456 71.5916 118.412 71.7712 118.424 71.9516C118.411 72.1335 118.455 72.3148 118.549 72.4711C118.587 72.5247 118.636 72.5685 118.695 72.5987C118.753 72.6289 118.817 72.6447 118.883 72.6447C118.948 72.6447 119.013 72.6289 119.071 72.5987C119.129 72.5685 119.179 72.5247 119.216 72.4711V72.4756ZM121.496 70.7961H122.239L119.243 75.1853H118.5L121.496 70.7961ZM121.299 75.0867C121.131 74.9879 120.997 74.8413 120.914 74.6657C120.822 74.4646 120.775 74.2462 120.775 74.0253C120.775 73.8043 120.822 73.5859 120.914 73.3848C120.997 73.2092 121.131 73.0626 121.299 72.9638C121.468 72.8638 121.662 72.8127 121.859 72.816C122.006 72.8107 122.152 72.8372 122.288 72.8936C122.425 72.95 122.547 73.0351 122.647 73.143C122.845 73.3946 122.952 73.7053 122.952 74.0253C122.952 74.3452 122.845 74.6559 122.647 74.9076C122.547 75.0155 122.425 75.1005 122.288 75.1569C122.152 75.2134 122.006 75.2398 121.859 75.2345C121.662 75.2379 121.468 75.1867 121.299 75.0867ZM122.195 74.5448C122.284 74.387 122.327 74.2065 122.316 74.0253C122.328 73.8453 122.286 73.6658 122.195 73.5102C122.159 73.4535 122.11 73.4071 122.051 73.3756C121.992 73.3442 121.926 73.3288 121.859 73.3311C121.793 73.33 121.729 73.3454 121.671 73.3759C121.613 73.4065 121.563 73.4511 121.527 73.5057C121.445 73.6665 121.402 73.8446 121.402 74.0253C121.402 74.206 121.445 74.3841 121.527 74.5448C121.565 74.5984 121.615 74.6422 121.673 74.6724C121.731 74.7026 121.796 74.7183 121.861 74.7183C121.926 74.7183 121.991 74.7026 122.049 74.6724C122.107 74.6422 122.157 74.5984 122.195 74.5448Z" fill="#575E68"/>
<path d="M127.48 112.21C127.435 112.21 127.391 112.203 127.35 112.19C127.309 112.176 127.272 112.155 127.241 112.129C127.209 112.102 127.185 112.071 127.168 112.037C127.151 112.002 127.143 111.965 127.144 111.928V107.486C127.144 107.001 126.915 106.536 126.508 106.193L117.201 98.383C116.936 98.1619 116.725 97.899 116.581 97.6094C116.437 97.3198 116.363 97.0092 116.363 96.6955V92.4147C116.364 92.3402 116.4 92.2691 116.463 92.2164C116.526 92.1638 116.61 92.1338 116.699 92.1328C116.788 92.1328 116.874 92.1625 116.937 92.2154C117 92.2682 117.035 92.3399 117.035 92.4147V96.6955C117.035 96.9352 117.091 97.1727 117.201 97.394C117.311 97.6153 117.472 97.8161 117.676 97.9846L126.982 105.794C127.248 106.016 127.458 106.28 127.601 106.57C127.744 106.86 127.817 107.172 127.815 107.486V111.939C127.812 112.012 127.775 112.081 127.712 112.131C127.65 112.182 127.566 112.21 127.48 112.21Z" fill="#1E252F"/>
<path d="M65.4577 44.4775V37.3775H68.1077C69.7277 37.3775 70.6877 38.2075 70.6877 39.5875C70.6877 40.9775 69.7277 41.8175 68.1077 41.8175H66.5377V44.4775H65.4577ZM68.0777 40.8375C69.0577 40.8375 69.5677 40.4075 69.5677 39.5875C69.5677 38.7775 69.0577 38.3675 68.0777 38.3675H66.5377V40.8375H68.0777ZM71.532 44.4775V39.1575H72.502L72.532 40.1675C72.732 39.4675 73.142 39.1575 73.802 39.1575H74.312V40.1075H73.802C72.992 40.1075 72.592 40.4975 72.592 41.3375V44.4775H71.532ZM77.1044 44.5975C75.5744 44.5975 74.5744 43.5075 74.5744 41.8175C74.5744 40.1275 75.5744 39.0375 77.1044 39.0375C78.6244 39.0375 79.6244 40.1275 79.6244 41.8175C79.6244 43.5075 78.6244 44.5975 77.1044 44.5975ZM77.1044 43.6775C78.0044 43.6775 78.5244 42.9875 78.5244 41.8175C78.5244 40.6475 78.0044 39.9575 77.1044 39.9575C76.2044 39.9575 75.6744 40.6475 75.6744 41.8175C75.6744 42.9875 76.2044 43.6775 77.1044 43.6775ZM82.6235 46.0975C81.3535 46.0975 80.5235 45.4875 80.3035 44.5675L81.4035 44.4975C81.5435 44.9475 81.8635 45.2175 82.6235 45.2175C83.5035 45.2175 83.9835 44.8575 83.9835 44.0875V43.3175C83.7235 43.8575 83.1235 44.2075 82.4335 44.2075C81.0935 44.2075 80.1435 43.1575 80.1435 41.6275C80.1435 40.1075 81.0835 39.0375 82.4035 39.0375C83.1535 39.0375 83.7735 39.4075 84.0235 39.9975V39.1575H85.0535V44.0575C85.0535 45.3675 84.1135 46.0975 82.6235 46.0975ZM82.6035 43.3075C83.4435 43.3075 83.9835 42.6675 83.9935 41.6175C84.0035 40.5775 83.4535 39.9375 82.6035 39.9375C81.7435 39.9375 81.2435 40.5875 81.2435 41.6175C81.2435 42.6575 81.7635 43.3075 82.6035 43.3075ZM86.257 44.4775V39.1575H87.227L87.257 40.1675C87.457 39.4675 87.867 39.1575 88.527 39.1575H89.037V40.1075H88.527C87.717 40.1075 87.317 40.4975 87.317 41.3375V44.4775H86.257ZM91.8194 44.5975C90.2794 44.5975 89.2994 43.4975 89.2994 41.8175C89.2994 40.1375 90.2794 39.0375 91.7894 39.0375C93.2394 39.0375 94.2294 40.0675 94.2294 41.8575V42.1275H90.4094C90.4594 43.1675 90.9894 43.6875 91.8294 43.6875C92.4594 43.6875 92.8794 43.3775 93.0494 42.8775L94.1494 42.9475C93.8694 43.9375 92.9994 44.5975 91.8194 44.5975ZM93.0994 41.3275C93.0394 40.3875 92.5194 39.9375 91.7894 39.9375C91.0394 39.9375 90.5294 40.4275 90.4094 41.3275H93.0994ZM97.1413 44.5975C95.6413 44.5975 94.8313 43.8475 94.7513 42.7975L95.8513 42.7475C95.9413 43.3375 96.3213 43.7075 97.1413 43.7075C97.8013 43.7075 98.2213 43.5075 98.2213 43.0375C98.2213 42.6475 98.0213 42.4775 96.9513 42.2975C95.3713 42.0175 94.8813 41.5575 94.8813 40.6875C94.8813 39.7175 95.6313 39.0375 97.0113 39.0375C98.3713 39.0375 99.0913 39.8175 99.2413 40.7875L98.1513 40.8475C98.0513 40.2975 97.6613 39.9275 97.0013 39.9275C96.3113 39.9275 95.9813 40.2275 95.9813 40.6475C95.9813 41.1175 96.3013 41.3075 97.1713 41.4475C98.8213 41.7175 99.3213 42.1575 99.3213 43.0275C99.3213 44.0275 98.4113 44.5975 97.1413 44.5975ZM102.232 44.5975C100.732 44.5975 99.922 43.8475 99.842 42.7975L100.942 42.7475C101.032 43.3375 101.412 43.7075 102.232 43.7075C102.892 43.7075 103.312 43.5075 103.312 43.0375C103.312 42.6475 103.112 42.4775 102.042 42.2975C100.462 42.0175 99.972 41.5575 99.972 40.6875C99.972 39.7175 100.722 39.0375 102.102 39.0375C103.462 39.0375 104.182 39.8175 104.332 40.7875L103.242 40.8475C103.142 40.2975 102.752 39.9275 102.092 39.9275C101.402 39.9275 101.072 40.2275 101.072 40.6475C101.072 41.1175 101.392 41.3075 102.262 41.4475C103.912 41.7175 104.412 42.1575 104.412 43.0275C104.412 44.0275 103.502 44.5975 102.232 44.5975ZM107.543 44.4775V37.3775H110.373C111.883 37.3775 112.833 38.2075 112.833 39.5175C112.833 40.3475 112.283 40.9775 111.623 41.1775C112.273 41.2775 112.643 41.6675 112.713 42.4075L112.903 44.4775H111.813L111.643 42.5475C111.603 41.9675 111.283 41.7075 110.503 41.7075H108.623V44.4775H107.543ZM110.393 40.7175C111.203 40.7175 111.713 40.2975 111.713 39.5475C111.713 38.7875 111.213 38.3675 110.303 38.3675H108.623V40.7175H110.393ZM115.983 44.5975C114.443 44.5975 113.463 43.4975 113.463 41.8175C113.463 40.1375 114.443 39.0375 115.953 39.0375C117.403 39.0375 118.393 40.0675 118.393 41.8575V42.1275H114.573C114.623 43.1675 115.153 43.6875 115.993 43.6875C116.623 43.6875 117.043 43.3775 117.213 42.8775L118.313 42.9475C118.033 43.9375 117.163 44.5975 115.983 44.5975ZM117.263 41.3275C117.203 40.3875 116.683 39.9375 115.953 39.9375C115.203 39.9375 114.693 40.4275 114.573 41.3275H117.263ZM119.225 45.9775V39.1575H120.225L120.245 39.9675C120.555 39.3575 121.145 39.0375 121.855 39.0375C123.415 39.0375 124.135 40.3175 124.135 41.8175C124.135 43.3175 123.405 44.5975 121.855 44.5975C121.165 44.5975 120.565 44.2775 120.285 43.7575V45.9775H119.225ZM121.665 43.6775C122.515 43.6775 123.035 42.9875 123.035 41.8175C123.035 40.6475 122.515 39.9575 121.665 39.9575C120.815 39.9575 120.285 40.5875 120.285 41.8175C120.285 43.0475 120.805 43.6775 121.665 43.6775ZM127.2 44.5975C125.67 44.5975 124.67 43.5075 124.67 41.8175C124.67 40.1275 125.67 39.0375 127.2 39.0375C128.72 39.0375 129.72 40.1275 129.72 41.8175C129.72 43.5075 128.72 44.5975 127.2 44.5975ZM127.2 43.6775C128.1 43.6775 128.62 42.9875 128.62 41.8175C128.62 40.6475 128.1 39.9575 127.2 39.9575C126.3 39.9575 125.77 40.6475 125.77 41.8175C125.77 42.9875 126.3 43.6775 127.2 43.6775ZM130.549 44.4775V39.1575H131.519L131.549 40.1675C131.749 39.4675 132.159 39.1575 132.819 39.1575H133.329V40.1075H132.819C132.009 40.1075 131.609 40.4975 131.609 41.3375V44.4775H130.549ZM136.127 44.4775C135.117 44.4775 134.647 44.0375 134.647 43.0375V40.0275H133.837V39.1575H134.647V37.9075H135.707V39.1575H137.117V40.0275H135.707V42.9575C135.707 43.4575 135.917 43.6075 136.357 43.6075H137.117V44.4775H136.127Z" fill="white" fill-opacity="0.2"/>
</svg>
