<svg width="293" height="185" viewBox="0 0 293 185" fill="none" xmlns="http://www.w3.org/2000/svg">
<rect x="1.09766" y="7.08203" width="291" height="171" rx="7.5" fill="#091224"/>
<rect x="1.09766" y="7.08203" width="291" height="171" rx="7.5" stroke="#1E252F"/>
<rect x="75.0977" y="1.58203" width="143" height="44" fill="#01060C"/>
<rect x="74.5977" y="1.08203" width="144" height="45" stroke="#2D3136" stroke-opacity="0.6"/>
<rect x="88.0977" y="10.582" width="24" height="24" rx="2" fill="#1D2531"/>
<path d="M94.0977 29.332H106.098C106.098 29.332 104.973 24.832 100.098 24.832C95.2227 24.832 94.0977 29.332 94.0977 29.332Z" fill="#01060C" stroke="#01060C" stroke-width="1.5" stroke-linecap="round" stroke-linejoin="round"/>
<path d="M103.098 18.832C103.098 20.4889 101.754 21.832 100.098 21.832C98.4408 21.832 97.0977 20.4889 97.0977 18.832C97.0977 17.1752 98.4408 15.832 100.098 15.832C101.754 15.832 103.098 17.1752 103.098 18.832Z" fill="#01060C" stroke="#01060C" stroke-width="1.5" stroke-linecap="round" stroke-linejoin="round"/>
<rect x="122.098" y="10.582" width="83" height="4" rx="1" fill="#1D2531"/>
<rect x="122.098" y="20.582" width="83" height="4" rx="1" fill="#1D2531"/>
<rect x="122.098" y="30.582" width="83" height="4" rx="1" fill="#1D2531"/>
<rect x="53.0977" y="63.582" width="187" height="58" fill="#01060C"/>
<rect x="52.5977" y="63.082" width="188" height="59" stroke="#2D3136" stroke-opacity="0.6"/>
<rect x="69.5977" y="77.582" width="30" height="30" rx="2" fill="#1D2531"/>
<path d="M77.9316 100.082H91.265C91.265 100.082 90.015 95.082 84.5983 95.082C79.1816 95.082 77.9316 100.082 77.9316 100.082Z" fill="#01060C" stroke="#01060C" stroke-width="1.5" stroke-linecap="round" stroke-linejoin="round"/>
<path d="M87.9303 88.4154C87.9303 90.2563 86.4379 91.7487 84.597 91.7487C82.7561 91.7487 81.2637 90.2563 81.2637 88.4154C81.2637 86.5744 82.7561 85.082 84.597 85.082C86.4379 85.082 87.9303 86.5744 87.9303 88.4154Z" fill="#01060C" stroke="#01060C" stroke-width="1.5" stroke-linecap="round" stroke-linejoin="round"/>
<rect x="109.598" y="77.582" width="114" height="6" rx="2" fill="#1D2531"/>
<rect x="109.598" y="89.582" width="96" height="6" rx="2" fill="#1D2531"/>
<rect x="109.598" y="101.582" width="83" height="6" rx="2" fill="#1D2531"/>
<rect x="75.0977" y="139.582" width="143" height="44" fill="#01060C"/>
<rect x="74.5977" y="139.082" width="144" height="45" stroke="#2D3136" stroke-opacity="0.6"/>
<rect x="88.0977" y="148.582" width="24" height="24" rx="2" fill="#1D2531"/>
<path d="M94.0977 167.332H106.098C106.098 167.332 104.973 162.832 100.098 162.832C95.2227 162.832 94.0977 167.332 94.0977 167.332Z" fill="#01060C" stroke="#01060C" stroke-width="1.5" stroke-linecap="round" stroke-linejoin="round"/>
<path d="M103.098 156.832C103.098 158.489 101.754 159.832 100.098 159.832C98.4408 159.832 97.0977 158.489 97.0977 156.832C97.0977 155.175 98.4408 153.832 100.098 153.832C101.754 153.832 103.098 155.175 103.098 156.832Z" fill="#01060C" stroke="#01060C" stroke-width="1.5" stroke-linecap="round" stroke-linejoin="round"/>
<rect x="122.098" y="148.582" width="83" height="4" rx="1" fill="#1D2531"/>
<rect x="122.098" y="158.582" width="83" height="4" rx="1" fill="#1D2531"/>
<rect x="122.098" y="168.582" width="83" height="4" rx="1" fill="#1D2531"/>
</svg>
