<svg width="106" height="28" viewBox="0 0 106 28" fill="none" xmlns="http://www.w3.org/2000/svg">
<path d="M7.92188 17.1929V16.1959H11.4149V17.4641C11.4122 17.6307 11.4452 17.7959 11.5117 17.9487C11.5782 18.1015 11.6767 18.2382 11.8005 18.3498C11.9243 18.4613 12.0705 18.545 12.2294 18.5953C12.3883 18.6456 12.5561 18.6612 12.7215 18.6412C13.0041 18.6796 13.2907 18.6103 13.5247 18.4472C13.7586 18.284 13.9227 18.039 13.9843 17.7605C14.0779 17.4416 14.0699 17.1014 13.9616 16.7872C13.2856 15.087 8.66613 14.3174 8.0793 11.6675C7.95982 11.0853 7.9524 10.4858 8.05743 9.90084C8.41775 7.77303 10.2876 7.00342 12.6087 7.00342C14.4566 7.00342 17.0033 7.4337 17.0033 10.2865V11.2153H13.7587V10.4002C13.7685 10.2396 13.7434 10.0787 13.6851 9.92865C13.6269 9.77861 13.5368 9.64297 13.4211 9.53104C13.3055 9.41911 13.1669 9.33355 13.0151 9.28023C12.8632 9.22692 12.7016 9.20711 12.5413 9.22218C12.2677 9.19205 11.9927 9.26628 11.7714 9.43003C11.5501 9.59378 11.3987 9.835 11.3475 10.1055C11.3111 10.3313 11.3188 10.5621 11.3703 10.785C11.7525 12.3015 16.6885 13.1175 17.2298 15.8575C17.3651 16.5676 17.3725 17.2962 17.2517 18.0089C16.936 20.1813 14.998 20.9964 12.655 20.9964C10.1957 20.9964 7.92188 20.1131 7.92188 17.1929ZM50.2437 17.1483V16.1513H53.6921V17.3967C53.6867 17.5618 53.717 17.7262 53.7809 17.8785C53.8449 18.0308 53.941 18.1675 54.0626 18.2793C54.1843 18.3911 54.3286 18.4753 54.4858 18.5261C54.643 18.5769 54.8093 18.5932 54.9734 18.5739C55.2534 18.6156 55.5389 18.5502 55.7729 18.3907C56.0068 18.2312 56.1719 17.9893 56.2353 17.7133C56.3288 17.4018 56.3212 17.0687 56.2135 16.7618C55.5593 15.087 50.9845 14.313 50.3994 11.6675C50.2797 11.093 50.272 10.5009 50.3767 9.92358C50.7396 7.81851 52.612 7.0489 54.8859 7.0489C56.712 7.0489 59.2351 7.50192 59.2351 10.3093V11.2153H56.0132V10.423C56.0235 10.2643 55.9995 10.1052 55.9429 9.95664C55.8863 9.80804 55.7984 9.67334 55.6852 9.56169C55.572 9.45004 55.4361 9.36405 55.2867 9.30955C55.1373 9.25504 54.978 9.2333 54.8194 9.2458C54.5508 9.21017 54.2787 9.27986 54.0603 9.44026C53.8419 9.60067 53.6939 9.83936 53.6475 10.1064C53.6107 10.3322 53.6181 10.563 53.6694 10.7859C54.0297 12.3024 58.9168 13.0956 59.4616 15.812C59.5968 16.5145 59.6042 17.2356 59.4835 17.9407C59.1678 20.1149 57.2525 20.9072 54.9357 20.9072C52.4983 20.909 50.2437 20.023 50.2437 17.1483ZM62.5934 17.625C62.562 17.339 62.5547 17.0508 62.5716 16.7635V7.38823H65.8617V17.0565C65.8574 17.223 65.8647 17.3896 65.8835 17.555C65.9569 17.8277 66.1182 18.0685 66.3423 18.2402C66.5664 18.412 66.8409 18.505 67.1232 18.505C67.4056 18.505 67.68 18.412 67.9041 18.2402C68.1282 18.0685 68.2895 17.8277 68.3629 17.555C68.3824 17.3896 68.39 17.223 68.3857 17.0565V7.38823H71.6775V16.7618C71.6775 17.011 71.6548 17.4868 71.6548 17.6232C71.43 20.072 69.5138 20.8591 67.1254 20.8591C64.737 20.8591 62.8191 20.0676 62.5934 17.6232V17.625ZM89.6821 17.4886C89.6487 17.2015 89.6335 16.9126 89.6367 16.6236V11.1244C89.6367 10.8978 89.6585 10.4903 89.6813 10.2629C89.9742 7.81851 91.935 7.0489 94.2561 7.0489C96.5553 7.0489 98.5826 7.81851 98.8091 10.2638C98.8361 10.5501 98.8434 10.8379 98.8309 11.1252V11.5511H95.5408V10.8305C95.5414 10.6633 95.5264 10.4964 95.4962 10.332C95.4098 10.0559 95.2374 9.8147 95.0043 9.64343C94.7711 9.47215 94.4894 9.37978 94.2001 9.37978C93.9108 9.37978 93.6291 9.47215 93.396 9.64343C93.1628 9.8147 92.9905 10.0559 92.904 10.332C92.8659 10.5337 92.851 10.7391 92.8594 10.9442V16.921C92.8556 17.0875 92.8632 17.254 92.8822 17.4195C92.9602 17.7159 93.1414 17.9748 93.3933 18.1496C93.6451 18.3243 93.9511 18.4034 94.2561 18.3727C94.5557 18.4046 94.8565 18.3254 95.1015 18.1502C95.3466 17.975 95.5188 17.7159 95.5854 17.4221C95.6158 17.2577 95.6234 17.09 95.6082 16.9236V15.0188H94.2788V13.1166H98.8764V16.6236C98.8797 16.9111 98.8645 17.1986 98.8309 17.4842C98.6062 19.8612 96.5571 20.6991 94.2561 20.6991C91.9551 20.6991 89.9069 19.8639 89.6821 17.4868V17.4886ZM43.8218 20.4524L43.7343 8.36161L41.478 20.4524H38.1879L35.956 8.36161L35.8685 20.4524H32.6213L32.8915 7.41096H38.1879L39.8329 17.6005L41.478 7.41096H46.7735L47.0664 20.4524H43.8218ZM26.5142 20.4524L24.7563 8.36161L22.953 20.4524H19.4381L21.8274 7.41096H27.6197L30.009 20.4524H26.5142ZM81.5915 20.3169L78.3242 9.47143L78.5043 20.316H75.3034V7.41096H80.1258L83.1867 17.9171L83.011 7.41096H86.2337V20.3178L81.5915 20.3169Z" fill="white"/>
</svg>
