<svg width="33" height="33" viewBox="0 0 33 33" fill="none" xmlns="http://www.w3.org/2000/svg">
<path fill-rule="evenodd" clip-rule="evenodd" d="M21.9303 8.67383H18.4854H14.7086H11.2637C7.49243 8.67383 5.60682 8.67383 4.43525 9.8454C3.26367 11.017 3.26367 12.9026 3.26367 16.6738V22.0072C3.26367 25.7784 3.26367 27.664 4.43525 28.8356C5.60682 30.0072 7.49243 30.0072 11.2637 30.0072H21.9303V8.67383Z" fill="white"/>
<path opacity="0.5" d="M29.9316 16.6736V22.0069C29.9316 25.7781 29.9316 27.6637 28.76 28.8353C27.6596 29.9357 25.9294 30.0026 22.5983 30.0066H21.9316V8.67383H22.5983C25.9294 8.67789 27.6596 8.74473 28.76 9.84513C29.9316 11.0167 29.9316 12.9023 29.9316 16.6736Z" fill="#C3D1FE"/>
<path opacity="0.5" d="M18.4861 8.67398L21.357 5.32464C21.7163 4.90531 21.6678 4.27402 21.2485 3.91459C20.8291 3.55516 20.1978 3.60374 19.8385 4.02306L16.5977 7.80392L13.3569 4.02306C12.9975 3.60374 12.3662 3.55518 11.9469 3.91459C11.5276 4.27402 11.479 4.90531 11.8384 5.32464L14.7093 8.67398H18.4861Z" fill="#62687F"/>
<path d="M25.931 15.3406C26.6674 15.3406 27.2643 15.9375 27.2643 16.6739C27.2643 17.4103 26.6674 18.0072 25.931 18.0072C25.1946 18.0072 24.5977 17.4103 24.5977 16.6739C24.5977 15.9375 25.1946 15.3406 25.931 15.3406Z" fill="white"/>
<path d="M25.931 20.6738C26.6674 20.6738 27.2643 21.2708 27.2643 22.0072C27.2643 22.7436 26.6674 23.3405 25.931 23.3405C25.1946 23.3405 24.5977 22.7436 24.5977 22.0072C24.5977 21.2708 25.1946 20.6738 25.931 20.6738Z" fill="white"/>
</svg>
